<svg width="47" height="48" viewBox="0 0 47 48" fill="none" xmlns="http://www.w3.org/2000/svg">
<g filter="url(#filter0_d)">
<path d="M42.3544 32.1881H34.2043C33.9434 32.1881 33.7307 32.4061 33.7307 32.6734C33.7307 32.9407 33.9434 33.1587 34.2043 33.1587H42.3544C42.6152 33.1587 42.8279 32.9407 42.8279 32.6734C42.8279 32.4061 42.6152 32.1881 42.3544 32.1881Z" fill="white"/>
<path d="M42.3544 38.34H33.2165C32.9556 38.34 32.7429 38.558 32.7429 38.8253C32.7429 39.0926 32.9556 39.3106 33.2165 39.3106H42.3544C42.6152 39.3106 42.8279 39.0926 42.8279 38.8253C42.8279 38.558 42.6152 38.34 42.3544 38.34Z" fill="white"/>
<path d="M5.41815 35.6916H12.7874C13.0482 35.6916 13.2609 35.4736 13.2609 35.2063C13.2609 34.939 13.0482 34.7209 12.7874 34.7209H5.41815C5.15733 34.7209 4.94461 34.939 4.94461 35.2063C4.94461 35.4755 5.15733 35.6916 5.41815 35.6916Z" fill="white"/>
<path fill-rule="evenodd" clip-rule="evenodd" d="M8.62767 0.53458C8.81077 0.441691 9.02905 0.479604 9.17333 0.627475L9.17357 0.627703C9.316 0.775549 9.35299 1.00114 9.2605 1.18883C8.96639 1.79168 8.81841 2.43434 8.81841 3.09976C8.81841 5.47703 10.7163 7.41262 13.047 7.41262C13.7 7.41262 14.3307 7.25906 14.9226 6.95953C15.1058 6.86664 15.324 6.90455 15.4683 7.05242C15.6126 7.20027 15.6477 7.42587 15.5571 7.61165C14.6747 9.42591 12.899 10.552 10.9234 10.552C8.06903 10.552 5.74759 8.1802 5.74759 5.26641C5.74759 3.2474 6.85189 1.43508 8.62767 0.53458ZM13.9217 8.30705C13.6331 8.35824 13.3427 8.38288 13.0467 8.38288L13.0469 8.38305C10.1925 8.38305 7.8711 6.01321 7.87295 3.09942C7.87295 2.79609 7.897 2.49843 7.94694 2.20459C7.15526 2.99891 6.69466 4.09087 6.69466 5.26625C6.69466 7.64542 8.59252 9.58101 10.9232 9.58101C12.0757 9.58101 13.143 9.11277 13.9217 8.30705Z" fill="white"/>
<path fill-rule="evenodd" clip-rule="evenodd" d="M42.3563 24.4099H42.3544C42.0936 24.4099 41.8827 24.6261 41.8809 24.8934L41.8698 27.4848L24.2971 0.923499C24.1214 0.656197 23.6904 0.656197 23.5128 0.923499L5.95298 27.4659L5.96408 24.7151C5.96593 24.4478 5.75321 24.2279 5.49239 24.2279H5.49054C5.22973 24.2279 5.01885 24.4441 5.017 24.7114L5.00035 29.0527C4.9985 29.2669 5.13539 29.4546 5.33331 29.519C5.37956 29.5342 5.4258 29.5399 5.4739 29.5399C5.62743 29.5399 5.77541 29.4621 5.86604 29.3275L8.62959 25.1512V29.0564C8.62959 29.3237 8.84231 29.5418 9.10313 29.5418H19.6503C20.1886 31.3314 21.8219 32.6357 23.7494 32.6357C23.7559 32.6357 23.7619 32.6352 23.7679 32.6347C23.7739 32.6342 23.7799 32.6338 23.7864 32.6338C23.7882 32.6338 23.7901 32.634 23.7922 32.6342C23.7933 32.6344 23.7944 32.6345 23.7956 32.6347L23.7956 32.6347L23.7957 32.6347C23.7989 32.6352 23.8021 32.6357 23.8049 32.6357C23.8141 32.6357 23.8234 32.6342 23.8326 32.6328C23.8376 32.632 23.8426 32.6313 23.8476 32.6307C23.8519 32.6303 23.8561 32.63 23.8604 32.63C25.7379 32.5807 27.3195 31.2953 27.8466 29.5418H38.7087C38.9696 29.5418 39.1823 29.3237 39.1823 29.0564V25.1511L41.9458 29.3275C42.0624 29.5038 42.2769 29.5816 42.4749 29.519C42.6728 29.4564 42.8097 29.2688 42.8097 29.0564L42.8282 24.8971C42.83 24.6279 42.6191 24.4118 42.3565 24.4099L42.3563 24.4099ZM23.8602 31.6596L23.8549 31.66C23.831 31.6617 23.8086 31.6634 23.7862 31.6634C22.9649 31.652 22.299 30.9695 22.299 30.1316C22.299 29.58 23.0907 28.3098 23.8047 27.3524C24.5187 28.3098 25.3105 29.5799 25.3105 30.1316C25.3105 30.9563 24.6649 31.6293 23.8602 31.6596L23.8602 31.6596ZM26.2557 30.1297C26.2557 30.2738 26.2372 30.4103 26.215 30.5468L26.215 30.5469C26.7569 29.9402 27.0899 29.1383 27.0862 28.2568C27.0862 26.8027 24.9331 23.7088 23.7455 22.1694C22.5598 23.7088 20.4048 26.8046 20.4048 28.2568C20.4048 29.2122 20.7951 30.0767 21.4185 30.6966C21.3778 30.5127 21.35 30.325 21.35 30.1297C21.35 28.9013 23.0907 26.6927 23.4384 26.2623C23.6179 26.0405 23.9878 26.0405 24.1673 26.2623C24.5169 26.6927 26.2557 28.9013 26.2557 30.1297ZM24.1137 21.0889C23.9342 20.8671 23.5642 20.8671 23.3848 21.0889C22.9834 21.5837 19.4614 25.9969 19.4614 28.257C19.4614 28.3331 19.4662 28.4083 19.4709 28.4831C19.4728 28.5127 19.4747 28.5422 19.4762 28.5717H14.7077V25.3716C15.3255 24.8598 17.3732 23.0854 19.4469 20.452C21.1302 18.3155 23.0521 15.2955 23.9233 11.8527C24.7945 15.2973 26.7164 18.3151 28.3997 20.452C30.4733 23.0852 32.521 24.8596 33.139 25.3716V28.5717H28.0204C28.0278 28.4674 28.0352 28.3632 28.0352 28.257C28.0371 25.9973 24.5151 21.5839 24.1137 21.0889H24.1137ZM34.0838 28.5715H38.2346L38.2371 23.7202L23.9068 2.06104L9.57646 23.7202V28.5715H13.7588V25.1364C13.7588 24.9847 13.8272 24.8425 13.9437 24.7515L13.9441 24.7512C14.0582 24.6596 23.4477 17.1171 23.4477 8.19011C23.4477 7.9228 23.6604 7.70479 23.9213 7.70479C24.1821 7.70479 24.3948 7.9228 24.3948 8.19011C24.3948 17.114 33.7777 24.6542 33.8983 24.7512L33.8988 24.7515C34.0153 24.8444 34.0838 24.9866 34.0838 25.1364V28.5715Z" fill="white"/>
<path fill-rule="evenodd" clip-rule="evenodd" d="M31.102 34.433C31.1446 34.5543 31.1353 34.6908 31.0799 34.8064L31.0802 34.8064C31.0228 34.924 30.9248 35.0131 30.8027 35.0548L29.051 35.6482L30.7343 36.1354C30.8564 36.1714 30.96 36.2548 31.021 36.3686C31.082 36.4823 31.095 36.615 31.0598 36.7401L30.455 38.8293C30.3939 39.0397 30.2071 39.1762 30.0018 39.1762C29.9592 39.1762 29.9149 39.1686 29.8723 39.1572L23.8455 37.4112L18.3146 39.2861C18.2665 39.3032 18.2165 39.3108 18.1666 39.3108C17.9705 39.3108 17.7874 39.1857 17.7227 38.9847L17.0253 36.924C16.9827 36.8027 16.992 36.6662 17.0475 36.5506C17.103 36.433 17.2028 36.3458 17.3231 36.3041L18.7844 35.8093L17.029 35.3012C16.9069 35.2652 16.8033 35.1818 16.7423 35.0681C16.6812 34.9543 16.6683 34.8216 16.7034 34.6965L17.3083 32.6074C17.3823 32.3514 17.6412 32.2055 17.891 32.2775L23.9897 34.0443L29.809 32.0708C30.0551 31.9874 30.3196 32.122 30.4047 32.3723L31.102 34.433ZM18.0835 33.3411L17.7468 34.4994L20.3883 35.2652L22.386 34.5885L18.0835 33.3411ZM30.0144 36.9353L29.6777 38.0936L25.4491 36.8671L27.4469 36.1903L30.0144 36.9353ZM18.0743 37.0718L18.4609 38.215L30.0499 34.287L29.6633 33.1438L18.0743 37.0718Z" fill="white"/>
</g>
<defs>
<filter id="filter0_d" x="0.944611" y="0.484131" width="45.8836" height="46.8267" filterUnits="userSpaceOnUse" color-interpolation-filters="sRGB">
<feFlood flood-opacity="0" result="BackgroundImageFix"/>
<feColorMatrix in="SourceAlpha" type="matrix" values="0 0 0 0 0 0 0 0 0 0 0 0 0 0 0 0 0 0 127 0"/>
<feOffset dy="4"/>
<feGaussianBlur stdDeviation="2"/>
<feColorMatrix type="matrix" values="0 0 0 0 0 0 0 0 0 0 0 0 0 0 0 0 0 0 0.25 0"/>
<feBlend mode="normal" in2="BackgroundImageFix" result="effect1_dropShadow"/>
<feBlend mode="normal" in="SourceGraphic" in2="effect1_dropShadow" result="shape"/>
</filter>
</defs>
</svg>
