<svg width="25" height="24" viewBox="0 0 25 24" fill="none" xmlns="http://www.w3.org/2000/svg">
<path fill-rule="evenodd" clip-rule="evenodd" d="M23.7583 23.3304C24.6364 22.4376 24.6364 20.9911 23.7583 20.0983L19.1196 15.3817C18.7903 15.0469 18.7046 14.4375 18.9264 14.0223C18.9264 14.0223 18.911 14.0848 19.0735 13.721C19.6179 12.5 19.9209 11.1429 19.9209 9.7143C19.9209 4.34823 15.6443 0 10.3668 0C5.08918 0 0.812653 4.34823 0.812653 9.7143C0.812653 15.0804 5.08918 19.4286 10.3668 19.4286C11.7674 19.4286 13.0978 19.1228 14.2964 18.5715C14.6586 18.4063 14.6016 18.4197 14.6016 18.4197C15.0165 18.1942 15.6114 18.279 15.9407 18.6139L20.5795 23.3304C21.4575 24.2232 22.8801 24.2232 23.7583 23.3304ZM15.7059 9.71434C15.7059 12.7121 13.3151 15.1429 10.3668 15.1429C7.41847 15.1429 5.02775 12.7121 5.02775 9.71434C5.02775 6.71657 7.41847 4.28577 10.3668 4.28577C13.3151 4.28577 15.7059 6.71657 15.7059 9.71434Z" fill="white"/>
</svg>
