<svg width="24" height="52" viewBox="0 0 24 52" fill="none" xmlns="http://www.w3.org/2000/svg">
<g filter="url(#filter0_d)">
<path fill-rule="evenodd" clip-rule="evenodd" d="M4.73022 20.5831C4.73022 7.50231 10.0625 0.445015 12.2431 0.444458C14.424 0.445015 19.756 7.50186 19.756 20.5831C19.756 33.8 15.0911 42.7601 14.8931 43.1351L14.7001 43.4997H9.78608L9.59313 43.1351C9.39512 42.76 4.73022 33.8 4.73022 20.5831ZM11.5604 2.2882V2.28813L11.5605 2.28809L11.5604 2.2882ZM11.5604 2.2882V24.0557H12.9264V2.28813C14.6748 3.87493 18.3903 9.64769 18.3903 20.5832C18.3903 24.2325 18.013 27.5624 17.4751 30.4704C16.6845 29.3263 15.2314 27.769 12.5833 26.2308C6.14461 22.4894 6.22285 17.3521 6.2281 17.1352H6.22639C6.89743 8.41855 10.0066 3.6999 11.5604 2.2882ZM6.22989 24.2243C6.17184 23.4014 6.13768 22.5577 6.1189 21.6983C7.09562 23.5437 8.82867 25.6495 11.9053 27.4376C16.2773 29.9785 17.0258 32.4919 17.0447 32.5552L17.0449 32.5558C16.7102 34.0419 16.3431 35.3908 15.976 36.5784C15.4006 35.5419 14.3863 34.2676 12.5952 33.1825C7.20116 29.9169 6.34922 25.179 6.22989 24.2243ZM12.9263 42.1113H13.8705L13.8704 42.1109C14.1418 41.5415 14.6917 40.3227 15.3166 38.5693C15.1834 37.9911 14.5448 35.979 11.8948 34.3748C9.48565 32.9149 7.90111 31.1771 6.85444 29.5486C7.97284 36.2104 10.0014 40.8231 10.616 42.1113H11.5603V37.2499H12.9263V42.1113Z" fill="white"/>
<path d="M12.2431 0.444458L12.2431 0.319458L12.2431 0.319458L12.2431 0.444458ZM14.8931 43.1351L15.0036 43.1936L15.0036 43.1935L14.8931 43.1351ZM14.7001 43.4997V43.6247H14.7754L14.8106 43.5582L14.7001 43.4997ZM9.78608 43.4997L9.6756 43.5582L9.71081 43.6247H9.78608V43.4997ZM9.59313 43.1351L9.48259 43.1935L9.48265 43.1936L9.59313 43.1351ZM11.5604 2.28813L11.5196 2.16998L11.4354 2.19906V2.28813H11.5604ZM11.5605 2.28809L11.6446 2.38061L11.5197 2.16993L11.5605 2.28809ZM11.5604 24.0557H11.4354V24.1807H11.5604V24.0557ZM12.9264 24.0557V24.1807H13.0514V24.0557H12.9264ZM12.9264 2.28813L13.0104 2.19557L12.8014 2.00589V2.28813H12.9264ZM17.4751 30.4704L17.3722 30.5414L17.5433 30.7889L17.598 30.4931L17.4751 30.4704ZM12.5833 26.2308L12.5205 26.3388L12.5205 26.3388L12.5833 26.2308ZM6.2281 17.1352L6.35306 17.1382L6.35616 17.0102H6.2281V17.1352ZM6.22639 17.1352L6.10176 17.1256L6.0914 17.2602H6.22639V17.1352ZM6.1189 21.6983L6.22938 21.6398L5.99393 21.7011L6.1189 21.6983ZM6.22989 24.2243L6.10502 24.2331L6.10585 24.2398L6.22989 24.2243ZM11.9053 27.4376L11.8424 27.5456L11.8424 27.5456L11.9053 27.4376ZM17.0447 32.5552L17.1645 32.5195L17.1645 32.5195L17.0447 32.5552ZM17.0449 32.5558L17.1668 32.5832L17.174 32.5514L17.1647 32.5201L17.0449 32.5558ZM15.976 36.5784L15.8667 36.639L16.0089 36.8951L16.0954 36.6153L15.976 36.5784ZM12.5952 33.1825L12.6599 33.0756L12.6599 33.0756L12.5952 33.1825ZM13.8705 42.1113V42.2363H14.084L13.9796 42.0501L13.8705 42.1113ZM12.9263 42.1113H12.8013V42.2363H12.9263V42.1113ZM13.8704 42.1109L13.7575 42.0571L13.7297 42.1156L13.7613 42.1721L13.8704 42.1109ZM15.3166 38.5693L15.4343 38.6112L15.4466 38.5768L15.4384 38.5412L15.3166 38.5693ZM11.8948 34.3748L11.83 34.4817L11.8301 34.4817L11.8948 34.3748ZM6.85444 29.5486L6.95959 29.481L6.73116 29.5693L6.85444 29.5486ZM10.616 42.1113L10.5032 42.1651L10.5372 42.2363H10.616V42.1113ZM11.5603 42.1113V42.2363H11.6853V42.1113H11.5603ZM11.5603 37.2499V37.1249H11.4353V37.2499H11.5603ZM12.9263 37.2499H13.0513V37.1249H12.9263V37.2499ZM12.2431 0.319458C11.9385 0.319536 11.5937 0.441946 11.2286 0.667033C10.8621 0.893035 10.4664 1.22792 10.0578 1.66668C9.24046 2.54434 8.36282 3.84689 7.5559 5.55531C5.94164 8.97305 4.60522 14.0261 4.60522 20.5831H4.85522C4.85522 14.0594 6.18493 9.04333 7.78196 5.66208C8.58068 3.971 9.44497 2.69158 10.2407 1.83706C10.6387 1.40973 11.0174 1.09098 11.3598 0.879834C11.7037 0.667771 12.0025 0.569519 12.2431 0.569458L12.2431 0.319458ZM19.881 20.5831C19.881 14.0258 18.5446 8.97283 16.9304 5.55514C16.1235 3.84675 15.2459 2.54424 14.4285 1.66662C14.0199 1.22787 13.6243 0.893002 13.2577 0.667011C12.8926 0.441935 12.5477 0.319536 12.2431 0.319458L12.2431 0.569458C12.4837 0.569519 12.7825 0.667768 13.1265 0.879819C13.469 1.09095 13.8476 1.40969 14.2456 1.837C15.0414 2.69148 15.9057 3.97086 16.7044 5.66191C18.3013 9.0431 19.631 14.0592 19.631 20.5831H19.881ZM15.0036 43.1935C15.2067 42.809 19.881 33.8282 19.881 20.5831H19.631C19.631 33.7719 14.9756 42.7113 14.7825 43.0767L15.0036 43.1935ZM14.8106 43.5582L15.0036 43.1936L14.7826 43.0767L14.5896 43.4412L14.8106 43.5582ZM9.78608 43.6247H14.7001V43.3747H9.78608V43.6247ZM9.48265 43.1936L9.6756 43.5582L9.89656 43.4412L9.70361 43.0767L9.48265 43.1936ZM4.60522 20.5831C4.60522 33.8282 9.27956 42.8089 9.48259 43.1935L9.70367 43.0768C9.51067 42.7112 4.85522 33.7719 4.85522 20.5831H4.60522ZM11.4354 2.28813V2.2882H11.6854V2.28813H11.4354ZM11.5197 2.16993L11.5196 2.16998L11.6012 2.40628L11.6013 2.40624L11.5197 2.16993ZM11.6444 2.38073L11.6446 2.38061L11.4765 2.19556L11.4763 2.19568L11.6444 2.38073ZM11.6854 24.0557V2.2882H11.4354V24.0557H11.6854ZM12.9264 23.9307H11.5604V24.1807H12.9264V23.9307ZM12.8014 2.28813V24.0557H13.0514V2.28813H12.8014ZM18.5153 20.5832C18.5153 9.62257 14.7916 3.81211 13.0104 2.19557L12.8424 2.38069C14.558 3.93775 18.2653 9.6728 18.2653 20.5832H18.5153ZM17.598 30.4931C18.1371 27.5786 18.5153 24.2411 18.5153 20.5832H18.2653C18.2653 24.2239 17.8888 27.5461 17.3522 30.4476L17.598 30.4931ZM12.5205 26.3388C15.1536 27.8683 16.5927 29.4133 17.3722 30.5414L17.5779 30.3993C16.7763 29.2392 15.3093 27.6696 12.6461 26.1227L12.5205 26.3388ZM6.10313 17.1322C6.09726 17.3749 6.02779 22.5661 12.5205 26.3388L12.6461 26.1227C6.26142 22.4127 6.34844 17.3293 6.35306 17.1382L6.10313 17.1322ZM6.22639 17.2602H6.2281V17.0102H6.22639V17.2602ZM11.4763 2.19568C9.89295 3.63424 6.77455 8.38618 6.10176 17.1256L6.35102 17.1448C7.02031 8.45092 10.1202 3.76557 11.6444 2.38072L11.4763 2.19568ZM5.99393 21.7011C6.01275 22.5619 6.04697 23.4077 6.1052 24.2331L6.35458 24.2155C6.2967 23.3951 6.26262 22.5535 6.24387 21.6956L5.99393 21.7011ZM11.9681 27.3295C8.9119 25.5533 7.19527 23.4648 6.22938 21.6398L6.00842 21.7568C6.99597 23.6226 8.74545 25.7457 11.8424 27.5456L11.9681 27.3295ZM17.1645 32.5195C17.137 32.4274 16.3691 29.8873 11.9681 27.3295L11.8424 27.5456C16.1855 30.0697 16.9146 32.5564 16.9249 32.5909L17.1645 32.5195ZM17.1647 32.5201L17.1645 32.5195L16.9249 32.5908L16.925 32.5914L17.1647 32.5201ZM16.0954 36.6153C16.4634 35.4247 16.8314 34.0726 17.1668 32.5832L16.9229 32.5283C16.589 34.0112 16.2227 35.357 15.8566 36.5414L16.0954 36.6153ZM12.5304 33.2894C14.3013 34.3622 15.3009 35.6199 15.8667 36.639L16.0853 36.5177C15.5003 35.464 14.4714 34.173 12.6599 33.0756L12.5304 33.2894ZM6.10585 24.2398C6.22766 25.2143 7.09075 29.9962 12.5304 33.2895L12.6599 33.0756C7.31157 29.8376 6.47078 25.1437 6.35392 24.2088L6.10585 24.2398ZM13.8705 41.9863H12.9263V42.2363H13.8705V41.9863ZM13.7613 42.1721L13.7615 42.1724L13.9796 42.0501L13.9794 42.0498L13.7613 42.1721ZM15.1989 38.5273C14.5755 40.2762 14.0274 41.491 13.7575 42.0571L13.9832 42.1647C14.2563 41.5919 14.8078 40.3692 15.4343 38.6112L15.1989 38.5273ZM11.8301 34.4817C14.4443 36.0643 15.0672 38.0433 15.1948 38.5973L15.4384 38.5412C15.2997 37.9389 14.6453 35.8937 11.9595 34.2679L11.8301 34.4817ZM6.74929 29.6162C7.80544 31.2594 9.40336 33.0112 11.83 34.4817L11.9596 34.2679C9.56795 32.8186 7.99679 31.0947 6.95959 29.481L6.74929 29.6162ZM10.7288 42.0574C10.1177 40.7766 8.09369 36.1752 6.97771 29.5279L6.73116 29.5693C7.852 36.2455 9.88504 40.8695 10.5032 42.1651L10.7288 42.0574ZM11.5603 41.9863H10.616V42.2363H11.5603V41.9863ZM11.4353 37.2499V42.1113H11.6853V37.2499H11.4353ZM12.9263 37.1249H11.5603V37.3749H12.9263V37.1249ZM13.0513 42.1113V37.2499H12.8013V42.1113H13.0513Z" fill="black"/>
</g>
<defs>
<filter id="filter0_d" x="0.605225" y="0.319458" width="23.2758" height="51.3052" filterUnits="userSpaceOnUse" color-interpolation-filters="sRGB">
<feFlood flood-opacity="0" result="BackgroundImageFix"/>
<feColorMatrix in="SourceAlpha" type="matrix" values="0 0 0 0 0 0 0 0 0 0 0 0 0 0 0 0 0 0 127 0"/>
<feOffset dy="4"/>
<feGaussianBlur stdDeviation="2"/>
<feColorMatrix type="matrix" values="0 0 0 0 0 0 0 0 0 0 0 0 0 0 0 0 0 0 0.25 0"/>
<feBlend mode="normal" in2="BackgroundImageFix" result="effect1_dropShadow"/>
<feBlend mode="normal" in="SourceGraphic" in2="effect1_dropShadow" result="shape"/>
</filter>
</defs>
</svg>
