<svg width="60" height="48" viewBox="0 0 60 48" fill="none" xmlns="http://www.w3.org/2000/svg">
<path fill-rule="evenodd" clip-rule="evenodd" d="M58.7408 43.8612C58.7315 43.8896 58.7199 43.9181 58.7061 43.9442L58.7065 43.9438C58.6926 43.9723 58.6788 43.9984 58.651 44.0174C58.6348 44.0435 58.6186 44.0649 58.6024 44.0886C58.5839 44.1123 58.5631 44.1385 58.5423 44.1622C58.5238 44.1812 58.5053 44.2002 58.4845 44.2191C58.4613 44.2429 58.4359 44.2642 58.4105 44.2832C58.3896 44.2975 58.3642 44.3141 58.3411 44.3283C58.3133 44.3425 58.2879 44.3592 58.2578 44.3734C58.2383 44.3834 58.2178 44.391 58.1968 44.3988L58.1967 44.3988C58.1878 44.4021 58.1789 44.4055 58.1699 44.409C58.1637 44.4114 58.1578 44.414 58.1519 44.4166C58.1401 44.4219 58.1283 44.4272 58.1144 44.4304C58.1051 44.4327 58.0982 44.4304 58.089 44.4327C58.0173 44.4517 57.9432 44.4636 57.8669 44.4636C57.7628 44.4636 57.7258 44.4802 57.7258 44.4802C57.6833 44.5308 57.606 44.784 57.557 44.9443L57.5524 44.9596C57.3719 45.5529 56.9949 46.787 55.4707 46.787C54.1669 46.787 53.5193 45.8988 53.0455 45.2489L53.0421 45.2444C52.598 44.6297 52.4292 44.4635 52.0961 44.4635C51.763 44.4635 51.5965 44.6296 51.1501 45.2419L51.1468 45.2465C50.6729 45.8963 50.0252 46.7846 48.7192 46.7846C47.4154 46.7846 46.7677 45.8964 46.2939 45.2465L46.2905 45.2419C45.8464 44.6297 45.6776 44.4635 45.3445 44.4635C45.0138 44.4635 44.8449 44.6297 44.3985 45.2444C43.9267 45.8946 43.2767 46.787 41.9699 46.787C40.6638 46.787 40.0162 45.8988 39.5423 45.2489L39.539 45.2444C39.0949 44.6321 38.926 44.466 38.593 44.466C38.2599 44.466 38.0933 44.6321 37.6469 45.2444C37.1751 45.8946 36.5274 46.787 35.2183 46.787C33.9146 46.787 33.2669 45.8988 32.7931 45.2489L32.7897 45.2444C32.3456 44.6321 32.1768 44.466 31.8437 44.466C31.513 44.466 31.3441 44.6321 30.8977 45.2468C30.4258 45.897 29.7759 46.7894 28.4691 46.7894C27.1653 46.7894 26.5177 45.9012 26.0438 45.2514L26.0405 45.2468C25.5964 44.6345 25.4275 44.4684 25.0945 44.4684C24.7637 44.4684 24.5948 44.6346 24.1484 45.2492C23.6766 45.8995 23.0266 46.7918 21.7198 46.7918C21.3058 46.7918 20.9288 46.6186 20.6628 46.3053C20.0175 45.5507 20.147 44.2644 20.413 42.2281L20.4175 42.1929C20.5125 41.4561 20.6574 40.3326 20.6096 39.7861C18.8819 40.1324 16.4301 43.6854 15.158 46.2698C15.0007 46.5926 14.6792 46.792 14.3323 46.792C14.3138 46.792 14.2953 46.792 14.2768 46.7896C13.909 46.7683 13.5875 46.5238 13.4626 46.1678C13.2498 45.5645 11.4319 40.1941 13.3215 37.2228C14.0293 36.1121 15.1765 35.4737 16.6429 35.3764C17.9173 35.291 18.5002 34.9397 18.6112 34.6621C18.6853 34.477 18.5673 34.1613 18.3083 33.8599C17.619 33.0554 16.0785 32.4099 14.3253 32.8988C11.8943 33.5732 9.1697 36.917 8.25145 40.3534C7.92994 41.5614 7.58296 43.797 8.89674 45.1806C9.25293 45.558 9.24368 46.1584 8.87823 46.5238C8.51047 46.8893 7.92764 46.8822 7.56913 46.5049C6.11891 44.979 5.72802 42.6153 6.46585 39.8528C7.42093 36.2739 10.4418 32.0092 13.8418 31.067C16.3744 30.3645 18.6064 31.3328 19.6981 32.6072C20.4545 33.4877 20.6812 34.5011 20.3226 35.3887C20.0104 36.16 19.1407 37.1141 16.763 37.2731C15.8772 37.3324 15.2596 37.6575 14.8734 38.2627C14.0939 39.4873 14.2743 41.6588 14.6282 43.3913C16.0161 41.1058 18.4516 37.7856 20.9727 37.8663C21.3798 37.8806 21.7475 38.0609 22.0066 38.3766C22.2656 38.6898 22.3928 39.0957 22.4391 39.5988C24.1414 38.443 26.6258 37.2991 31.5292 36.7912C26.2139 14.6964 36.206 2.25821 36.6593 1.71C36.6632 1.70603 36.6671 1.7029 36.6708 1.6999C36.6759 1.69571 36.6807 1.69179 36.6848 1.68626C36.7125 1.65541 36.7403 1.6293 36.7704 1.6032C36.7889 1.58421 36.8074 1.5676 36.8282 1.55336C36.8566 1.53392 36.885 1.51766 36.9147 1.50068L36.9346 1.48928C36.9531 1.47742 36.9716 1.46555 36.9924 1.45606C37.0364 1.43707 37.0803 1.42283 37.1266 1.41096C37.1373 1.40938 37.1481 1.4057 37.1589 1.40201L37.1589 1.402L37.1589 1.402C37.1643 1.40015 37.1697 1.39831 37.1751 1.39673C37.2376 1.38249 37.3023 1.37537 37.3694 1.37537L37.5059 1.38011C37.7788 1.38011 38.0355 1.50115 38.2113 1.71474C38.6646 2.26032 48.608 14.6349 43.3877 36.6228C57.0384 37.4439 58.7084 43.0329 58.7731 43.2773C58.7755 43.2868 58.7755 43.2987 58.7778 43.3082L58.7916 43.4007C58.7963 43.434 58.8009 43.4672 58.8009 43.5004C58.8009 43.504 58.8012 43.5076 58.8016 43.5112L58.8021 43.5147C58.8026 43.5194 58.8032 43.5241 58.8032 43.5289C58.8032 43.5479 58.8009 43.5645 58.7986 43.5835L58.7984 43.5867C58.7961 43.619 58.7937 43.6534 58.787 43.6855C58.7824 43.714 58.7755 43.7425 58.7685 43.771C58.7671 43.7756 58.7658 43.7802 58.7645 43.7848C58.7631 43.7896 58.7618 43.7943 58.7605 43.7991C58.7546 43.8204 58.7488 43.8413 58.7408 43.8612ZM38.2941 39.5466H40.6857C45.9525 21.8735 40.9979 9.95952 38.2941 5.22961V39.5466ZM36.4438 5.47876V39.5466H34.1886C29.0238 22.2174 33.7191 10.3793 36.4438 5.47876ZM55.7917 44.42L55.7964 44.4046L55.7956 44.4047C55.9043 44.0486 56.0894 43.4648 56.545 43.0543C55.5207 41.7252 52.2895 38.996 42.9104 38.5C42.7069 39.2523 42.4872 40.0141 42.2466 40.7878C42.124 41.1817 41.7678 41.4499 41.3654 41.4499H33.5063C33.1038 41.4499 32.7476 41.1818 32.625 40.7878C32.403 40.0663 32.1994 39.3567 32.0074 38.6566C26.0607 39.2309 23.9329 40.7617 22.3069 42.0527C22.2996 42.1083 22.2928 42.1635 22.2858 42.2193C22.275 42.3063 22.264 42.3944 22.2514 42.487C22.1611 43.18 22.0224 44.2479 22.0501 44.8175C22.219 44.7155 22.3901 44.5066 22.6677 44.1222L22.671 44.1177C23.1449 43.4678 23.7926 42.5796 25.0986 42.5796C26.4024 42.5796 27.05 43.4677 27.5239 44.1176L27.5272 44.1222C27.9713 44.7345 28.1402 44.9006 28.4732 44.9006C28.8063 44.9006 28.9729 44.7345 29.4193 44.1222L29.4226 44.1176C29.8964 43.4678 30.5441 42.5796 31.8502 42.5796C33.154 42.5796 33.8016 43.4677 34.2754 44.1176L34.2788 44.1222C34.7252 44.7345 34.8941 44.9006 35.2248 44.9006C35.5579 44.9006 35.7244 44.7345 36.1708 44.1222C36.6427 43.4719 37.2903 42.5796 38.5994 42.5796C39.9032 42.5796 40.5508 43.4677 41.0247 44.1176L41.028 44.1222C41.4745 44.7369 41.6433 44.903 41.9764 44.903C42.3094 44.903 42.476 44.7369 42.9224 44.1246L42.9257 44.1201C43.3996 43.4702 44.0472 42.582 45.3533 42.582C46.6571 42.582 47.3047 43.4702 47.7786 44.12L47.7819 44.1246C48.226 44.7369 48.3949 44.903 48.7279 44.903C49.061 44.903 49.2299 44.7368 49.6763 44.1222C50.1481 43.4719 50.7981 42.5796 52.1049 42.5796C53.411 42.5796 54.0586 43.4677 54.5325 44.1176L54.5358 44.1222C54.9822 44.7345 55.1511 44.9006 55.4818 44.9006C55.5859 44.9006 55.6229 44.884 55.6229 44.884C55.6655 44.8334 55.7427 44.5804 55.7917 44.42Z" fill="white"/>
<path d="M58.7061 43.9442L58.2645 43.7096L59.0271 44.3275L58.7061 43.9442ZM58.7408 43.8612L58.2775 43.673L58.2707 43.6897L58.2652 43.7067L58.7408 43.8612ZM58.7065 43.9438L59.156 44.1629L58.3855 43.5605L58.7065 43.9438ZM58.651 44.0174L58.3687 43.6047L58.2817 43.6643L58.2261 43.7539L58.651 44.0174ZM58.6024 44.0886L58.9968 44.396L59.0065 44.3835L59.0155 44.3704L58.6024 44.0886ZM58.5423 44.1622L58.9004 44.5111L58.9095 44.5018L58.9182 44.4919L58.5423 44.1622ZM58.4845 44.2191L58.1475 43.8497L58.1367 43.8596L58.1264 43.8701L58.4845 44.2191ZM58.4105 44.2832L58.6928 44.6959L58.7013 44.6901L58.7095 44.6839L58.4105 44.2832ZM58.3411 44.3283L58.5693 44.7732L58.5866 44.7643L58.6032 44.7541L58.3411 44.3283ZM58.2578 44.3734L58.0438 43.9215L58.0366 43.9249L58.0296 43.9285L58.2578 44.3734ZM58.1968 44.3988L58.0228 43.9299L58.0111 43.9346L58.1968 44.3988ZM58.1967 44.3988L58.3707 44.8678L58.3824 44.8631L58.1967 44.3988ZM58.1699 44.409L58.3494 44.8757L58.3534 44.8741L58.1699 44.409ZM58.1519 44.4166L57.9483 43.96L57.9482 43.96L58.1519 44.4166ZM58.1144 44.4304L58.0033 43.9427L57.9902 43.946L58.1144 44.4304ZM58.089 44.4327L57.9647 43.9484L57.961 43.9494L58.089 44.4327ZM57.7258 44.4802L57.5211 44.024L57.4169 44.0708L57.3433 44.1582L57.7258 44.4802ZM57.557 44.9443L58.0352 45.0903L58.0352 45.0903L57.557 44.9443ZM57.5524 44.9596L57.0742 44.8136L57.074 44.8141L57.5524 44.9596ZM53.0455 45.2489L52.6414 45.5434L52.6415 45.5435L53.0455 45.2489ZM53.0421 45.2444L52.6368 45.5372L52.638 45.5388L53.0421 45.2444ZM51.1501 45.2419L50.7461 44.9474L50.746 44.9475L51.1501 45.2419ZM51.1468 45.2465L51.5508 45.541L51.5509 45.5409L51.1468 45.2465ZM46.2939 45.2465L46.6979 44.9519L46.6978 44.9519L46.2939 45.2465ZM46.2905 45.2419L45.8858 45.5355L45.8866 45.5366L46.2905 45.2419ZM44.3985 45.2444L43.9939 44.9505L43.9938 44.9507L44.3985 45.2444ZM39.5423 45.2489L39.9463 44.9543L39.9462 44.9542L39.5423 45.2489ZM39.539 45.2444L39.1342 45.5379L39.1351 45.539L39.539 45.2444ZM37.6469 45.2444L37.2429 44.9498L37.2423 44.9507L37.6469 45.2444ZM32.7931 45.2489L33.1971 44.9544L33.1971 44.9543L32.7931 45.2489ZM32.7897 45.2444L32.385 45.5379L32.3857 45.539L32.7897 45.2444ZM30.8977 45.2468L30.4931 44.953L30.493 44.9531L30.8977 45.2468ZM26.0438 45.2514L26.4478 44.9568L26.4478 44.9568L26.0438 45.2514ZM26.0405 45.2468L25.6357 45.5404L25.6365 45.5414L26.0405 45.2468ZM24.1484 45.2492L23.7439 44.9554L23.7438 44.9556L24.1484 45.2492ZM20.6628 46.3053L21.0439 45.9817L21.0428 45.9804L20.6628 46.3053ZM20.413 42.2281L20.9088 42.2929L20.9089 42.2921L20.413 42.2281ZM20.4175 42.1929L20.9134 42.2568V42.2568L20.4175 42.1929ZM20.6096 39.7861L21.1077 39.7425L21.059 39.186L20.5113 39.2958L20.6096 39.7861ZM15.158 46.2698L14.7094 46.049L14.7085 46.0508L15.158 46.2698ZM14.2768 46.7896L14.3404 46.2937L14.3231 46.2914L14.3058 46.2904L14.2768 46.7896ZM13.4626 46.1678L13.9344 46.0023L13.9342 46.0015L13.4626 46.1678ZM13.3215 37.2228L12.8999 36.9542L12.8996 36.9545L13.3215 37.2228ZM16.6429 35.3764L16.6761 35.8753L16.6764 35.8753L16.6429 35.3764ZM18.6112 34.6621L19.0755 34.8477L19.0755 34.8477L18.6112 34.6621ZM18.3083 33.8599L17.9286 34.1852L17.9291 34.1858L18.3083 33.8599ZM14.3253 32.8988L14.459 33.3806L14.4597 33.3804L14.3253 32.8988ZM8.25145 40.3534L7.7684 40.2244L7.76827 40.2248L8.25145 40.3534ZM8.89674 45.1806L9.26034 44.8374L9.25932 44.8363L8.89674 45.1806ZM8.87823 46.5238L9.23069 46.8785L9.2318 46.8774L8.87823 46.5238ZM7.56913 46.5049L7.93162 46.1605L7.93155 46.1604L7.56913 46.5049ZM6.46585 39.8528L6.94891 39.9818L6.94894 39.9817L6.46585 39.8528ZM13.8418 31.067L13.9753 31.5488L13.9754 31.5488L13.8418 31.067ZM19.6981 32.6072L19.3184 32.9325L19.3189 32.9331L19.6981 32.6072ZM20.3226 35.3887L20.7861 35.5763L20.7863 35.5759L20.3226 35.3887ZM16.763 37.2731L16.7297 36.7742L16.7296 36.7742L16.763 37.2731ZM14.8734 38.2627L14.4519 37.9937L14.4516 37.9942L14.8734 38.2627ZM14.6282 43.3913L14.1383 43.4913L14.3936 44.741L15.0556 43.6508L14.6282 43.3913ZM20.9727 37.8663L20.9902 37.3666L20.9887 37.3666L20.9727 37.8663ZM22.0066 38.3766L21.6201 38.6938L21.6213 38.6952L22.0066 38.3766ZM22.4391 39.5988L21.9412 39.6446L22.0188 40.4885L22.72 40.0125L22.4391 39.5988ZM31.5292 36.7912L31.5807 37.2886L32.149 37.2297L32.0153 36.6743L31.5292 36.7912ZM36.6593 1.71L36.3013 1.36099L36.287 1.37562L36.274 1.39136L36.6593 1.71ZM36.6708 1.6999L36.9859 2.08811L36.9859 2.08807L36.6708 1.6999ZM36.6848 1.68626L36.3131 1.35188L36.2961 1.37075L36.2811 1.39125L36.6848 1.68626ZM36.7704 1.6032L37.0982 1.98075L37.1139 1.96709L37.1284 1.95217L36.7704 1.6032ZM36.8282 1.55336L36.5459 1.14067L36.5459 1.14068L36.8282 1.55336ZM36.9147 1.50068L37.163 1.93468L37.1635 1.93437L36.9147 1.50068ZM36.9346 1.48928L37.1834 1.92297L37.1941 1.91683L37.2045 1.91016L36.9346 1.48928ZM36.9924 1.45606L36.7941 0.996966L36.7849 1.00113L36.9924 1.45606ZM37.1266 1.41096L37.0541 0.916249L37.0279 0.92008L37.0023 0.926645L37.1266 1.41096ZM37.1589 1.40201L36.9983 0.928502L36.9971 0.928906L37.1589 1.40201ZM37.1589 1.402L37.0682 0.910305L37.0326 0.916874L36.9983 0.928498L37.1589 1.402ZM37.1589 1.402L37.2497 1.89369L37.2859 1.88701L37.3208 1.87508L37.1589 1.402ZM37.1751 1.39673L37.064 0.90924L37.0491 0.912632L37.0344 0.916926L37.1751 1.39673ZM37.3694 1.37537L37.3868 0.875668L37.3781 0.875366H37.3694V1.37537ZM37.5059 1.38011L37.4885 1.87981L37.4972 1.88011H37.5059V1.38011ZM38.2113 1.71474L37.8252 2.03248L37.8267 2.03428L38.2113 1.71474ZM43.3877 36.6228L42.9012 36.5073L42.7638 37.0862L43.3577 37.1219L43.3877 36.6228ZM58.7731 43.2773L59.259 43.159L59.2565 43.1493L58.7731 43.2773ZM58.7778 43.3082L59.2722 43.234L59.2689 43.2118L59.2636 43.1899L58.7778 43.3082ZM58.7916 43.4007L59.2869 43.3318L59.2861 43.3266L58.7916 43.4007ZM58.8016 43.5112L58.3049 43.5686L58.3052 43.5708L58.8016 43.5112ZM58.8021 43.5147L58.3056 43.5742L58.3057 43.5749L58.8021 43.5147ZM58.7986 43.5835L58.3022 43.523L58.3007 43.5357L58.2998 43.5483L58.7986 43.5835ZM58.7984 43.5867L58.2996 43.5516L58.2996 43.5521L58.7984 43.5867ZM58.787 43.6855L58.2976 43.5833L58.2953 43.5943L58.2935 43.6053L58.787 43.6855ZM58.7685 43.771L59.2474 43.9146L59.2512 43.9021L59.2543 43.8893L58.7685 43.771ZM58.7645 43.7848L59.2455 43.9212L59.2456 43.9209L58.7645 43.7848ZM58.7605 43.7991L58.2787 43.6655L58.2786 43.6656L58.7605 43.7991ZM40.6857 39.5466V40.0466H41.0584L41.1649 39.6894L40.6857 39.5466ZM38.2941 39.5466H37.7941V40.0466H38.2941V39.5466ZM38.2941 5.22961L38.7282 4.98147L37.7941 3.34745V5.22961H38.2941ZM36.4438 39.5466V40.0466H36.9438V39.5466H36.4438ZM36.4438 5.47876H36.9438V3.55052L36.0068 5.23579L36.4438 5.47876ZM34.1886 39.5466L33.7095 39.6894L33.8159 40.0466H34.1886V39.5466ZM55.7964 44.4046L56.2746 44.5505L56.5018 43.8061L55.7303 43.909L55.7964 44.4046ZM55.7917 44.42L56.2699 44.566L56.2699 44.566L55.7917 44.42ZM55.7956 44.4047L55.3174 44.2586L55.0901 45.0032L55.8617 44.9003L55.7956 44.4047ZM56.545 43.0543L56.8797 43.4257L57.2237 43.1158L56.941 42.749L56.545 43.0543ZM42.9104 38.5L42.9368 38.0007L42.5333 37.9794L42.4278 38.3694L42.9104 38.5ZM42.2466 40.7878L42.724 40.9364L42.7241 40.9362L42.2466 40.7878ZM32.625 40.7878L32.1471 40.9349L32.1476 40.9364L32.625 40.7878ZM32.0074 38.6566L32.4896 38.5244L32.3783 38.1185L31.9594 38.1589L32.0074 38.6566ZM22.3069 42.0527L21.9959 41.6611L21.8372 41.7872L21.811 41.9883L22.3069 42.0527ZM22.2858 42.2193L22.782 42.281L22.782 42.281L22.2858 42.2193ZM22.2514 42.487L21.756 42.4191L21.7555 42.4225L22.2514 42.487ZM22.0501 44.8175L21.5507 44.8419L21.5915 45.6788L22.3087 45.2455L22.0501 44.8175ZM22.6677 44.1222L22.2637 43.8277L22.2623 43.8295L22.6677 44.1222ZM22.671 44.1177L22.267 43.8231L22.267 43.8231L22.671 44.1177ZM27.5239 44.1176L27.1199 44.4122L27.1199 44.4122L27.5239 44.1176ZM27.5272 44.1222L27.932 43.8286L27.9312 43.8276L27.5272 44.1222ZM29.4193 44.1222L29.0153 43.8275L29.0152 43.8276L29.4193 44.1222ZM29.4226 44.1176L29.8265 44.4123L29.8266 44.4122L29.4226 44.1176ZM34.2754 44.1176L33.8714 44.4122L33.8715 44.4122L34.2754 44.1176ZM34.2788 44.1222L34.6828 43.8276L34.6828 43.8276L34.2788 44.1222ZM36.1708 44.1222L36.5749 44.4167L36.5755 44.4158L36.1708 44.1222ZM41.0247 44.1176L41.4288 43.8231L41.4287 43.823L41.0247 44.1176ZM41.028 44.1222L41.4326 43.8284L41.4321 43.8277L41.028 44.1222ZM42.9224 44.1246L43.3264 44.4192L43.3265 44.419L42.9224 44.1246ZM42.9257 44.1201L42.5217 43.8255L42.5216 43.8257L42.9257 44.1201ZM47.7786 44.12L47.3746 44.4146L47.3747 44.4148L47.7786 44.12ZM47.7819 44.1246L48.1867 43.831L48.1858 43.8299L47.7819 44.1246ZM49.6763 44.1222L50.0808 44.416L50.081 44.4158L49.6763 44.1222ZM54.5325 44.1176L54.1285 44.4122L54.5325 44.1176ZM54.5358 44.1222L54.9398 43.8276L54.9398 43.8276L54.5358 44.1222ZM55.6229 44.884L55.8277 45.3401L55.9319 45.2933L56.0055 45.2059L55.6229 44.884ZM59.1476 44.1789C59.1776 44.1225 59.1998 44.0663 59.2163 44.0156L58.2652 43.7067C58.2643 43.7094 58.2636 43.7112 58.2633 43.712C58.2629 43.7129 58.2632 43.7121 58.2645 43.7096L59.1476 44.1789ZM58.3855 43.5605L58.385 43.5609L59.0271 44.3275L59.0276 44.3272L58.3855 43.5605ZM58.9333 44.4301C59.0801 44.3297 59.1416 44.1923 59.156 44.1629L58.257 43.7248C58.2436 43.7523 58.2774 43.6672 58.3687 43.6047L58.9333 44.4301ZM59.0155 44.3704C59.0216 44.3614 59.0234 44.3591 59.0364 44.3406C59.0466 44.3259 59.0607 44.3054 59.0759 44.281L58.2261 43.7539C58.2251 43.7555 58.223 43.7588 58.217 43.7673C58.2135 43.7723 58.2111 43.7758 58.2058 43.7833C58.2012 43.7897 58.1955 43.7978 58.1894 43.8068L59.0155 44.3704ZM58.9182 44.4919C58.9487 44.4571 58.9766 44.4219 58.9968 44.396L58.2081 43.7812C58.1913 43.8028 58.1775 43.8198 58.1664 43.8325L58.9182 44.4919ZM58.8214 44.5885C58.8547 44.5582 58.8831 44.5289 58.9004 44.5111L58.1842 43.8132C58.1645 43.8334 58.1558 43.8421 58.1475 43.8497L58.8214 44.5885ZM58.7095 44.6839C58.7503 44.6535 58.7968 44.6151 58.8425 44.5681L58.1264 43.8701C58.1264 43.8701 58.1261 43.8704 58.1255 43.8711C58.1248 43.8717 58.1238 43.8726 58.1225 43.8737C58.1198 43.876 58.1162 43.8789 58.1114 43.8825L58.7095 44.6839ZM58.6032 44.7541C58.6337 44.7353 58.6658 44.7143 58.6928 44.6959L58.1282 43.8705C58.1135 43.8806 58.0947 43.8928 58.0789 43.9025L58.6032 44.7541ZM58.4718 44.8253C58.5046 44.8098 58.5319 44.7943 58.5471 44.7857C58.5567 44.7803 58.5597 44.7785 58.5648 44.7757C58.5687 44.7735 58.5697 44.773 58.5693 44.7732L58.1128 43.8835C58.0985 43.8908 58.086 43.8977 58.0764 43.9031C58.0679 43.9078 58.0575 43.9137 58.0535 43.916C58.0415 43.9228 58.0411 43.9228 58.0438 43.9215L58.4718 44.8253ZM58.3708 44.8675C58.3869 44.8616 58.4357 44.8441 58.486 44.8183L58.0296 43.9285C58.0371 43.9247 58.0416 43.9229 58.0401 43.9235C58.0395 43.9238 58.038 43.9244 58.035 43.9255C58.0318 43.9267 58.0283 43.928 58.0228 43.9301L58.3708 44.8675ZM58.3824 44.8631L58.3825 44.863L58.0111 43.9346L58.011 43.9346L58.3824 44.8631ZM58.3534 44.8741C58.3568 44.8728 58.361 44.8712 58.3707 44.8676L58.0228 43.9301C58.0146 43.9331 58.0009 43.9382 57.9864 43.9439L58.3534 44.8741ZM58.3555 44.8733C58.359 44.8718 58.3589 44.8718 58.3584 44.872C58.3575 44.8724 58.3542 44.8738 58.3494 44.8757L57.9904 43.9423C57.9701 43.9502 57.9523 43.9582 57.9483 43.96L58.3555 44.8733ZM58.2255 44.9179C58.294 44.9022 58.3483 44.8765 58.3557 44.8732L57.9482 43.96C57.9404 43.9635 57.9463 43.9607 57.9543 43.9577C57.9643 43.9538 57.9812 43.9479 58.0033 43.9429L58.2255 44.9179ZM58.2132 44.9171C58.1806 44.9254 58.1521 44.9289 58.1308 44.9304C58.1207 44.9312 58.1126 44.9314 58.1077 44.9315C58.1034 44.9316 58.0999 44.9315 58.1017 44.9315C58.102 44.9315 58.1075 44.9316 58.1138 44.9314C58.1207 44.9313 58.1309 44.931 58.1431 44.9301C58.1686 44.9283 58.2014 44.9242 58.2386 44.9147L57.9902 43.946C58.0228 43.9377 58.0512 43.9342 58.0725 43.9326C58.0827 43.9319 58.0908 43.9317 58.0956 43.9316C58.0999 43.9315 58.1034 43.9315 58.1017 43.9315C58.1014 43.9315 58.0959 43.9315 58.0896 43.9316C58.0827 43.9318 58.0725 43.9321 58.0602 43.9329C58.0347 43.9347 58.002 43.9389 57.9647 43.9484L58.2132 44.9171ZM57.8669 44.9636C57.9953 44.9636 58.113 44.9436 58.2169 44.9161L57.961 43.9494C57.9215 43.9598 57.8912 43.9636 57.8669 43.9636V44.9636ZM57.7258 44.4802C57.9306 44.9364 57.9303 44.9365 57.9301 44.9366C57.93 44.9366 57.9298 44.9367 57.9296 44.9368C57.9293 44.9369 57.929 44.937 57.9287 44.9372C57.9281 44.9375 57.9275 44.9377 57.9269 44.938C57.9256 44.9385 57.9244 44.9391 57.9232 44.9396C57.9208 44.9406 57.9184 44.9416 57.9161 44.9426C57.9114 44.9445 57.907 44.9462 57.9027 44.9478C57.8941 44.951 57.8863 44.9537 57.8794 44.9558C57.8655 44.96 57.8552 44.9623 57.849 44.9634C57.837 44.9657 57.8412 44.9636 57.8669 44.9636V43.9636C57.7886 43.9636 57.7222 43.9698 57.6656 43.9804C57.6373 43.9857 57.6111 43.9921 57.5871 43.9994C57.5751 44.0031 57.5636 44.007 57.5526 44.0111C57.5471 44.0132 57.5417 44.0153 57.5364 44.0175C57.5338 44.0185 57.5312 44.0196 57.5287 44.0207C57.5274 44.0213 57.5261 44.0218 57.5248 44.0224C57.5242 44.0227 57.5236 44.0229 57.5229 44.0232C57.5226 44.0233 57.5223 44.0235 57.522 44.0236C57.5219 44.0237 57.5216 44.0238 57.5215 44.0238C57.5213 44.0239 57.5211 44.024 57.7258 44.4802ZM58.0352 45.0903C58.0602 45.0084 58.0893 44.9135 58.1168 44.8333C58.1306 44.7929 58.1417 44.7635 58.1494 44.745C58.1533 44.7357 58.1542 44.7345 58.1519 44.7388C58.1507 44.7412 58.1473 44.7477 58.1416 44.7568C58.1365 44.765 58.1255 44.7818 58.1084 44.8022L57.3433 44.1582C57.277 44.2369 57.2389 44.3305 57.2273 44.358C57.2071 44.4062 57.1878 44.4596 57.1709 44.5088C57.1368 44.608 57.1028 44.7198 57.0788 44.7983L58.0352 45.0903ZM58.0306 45.1056L58.0352 45.0903L57.0788 44.7983L57.0742 44.8136L58.0306 45.1056ZM55.4707 47.287C56.3935 47.287 57.0089 46.9024 57.4053 46.4089C57.7806 45.9416 57.9423 45.3959 58.0307 45.105L57.074 44.8141C56.982 45.1166 56.865 45.4846 56.6256 45.7827C56.4073 46.0545 56.0722 46.287 55.4707 46.287V47.287ZM52.6415 45.5435C53.1058 46.1804 53.8888 47.287 55.4707 47.287V46.287C54.4451 46.287 53.9328 45.6172 53.4495 44.9543L52.6415 45.5435ZM52.638 45.5388L52.6414 45.5434L53.4495 44.9544L53.4462 44.9499L52.638 45.5388ZM52.0961 44.9635C52.1364 44.9635 52.1494 44.9684 52.1519 44.9693C52.1543 44.9702 52.1697 44.9755 52.2038 45.0045C52.2893 45.0772 52.4087 45.2214 52.6368 45.5372L53.4474 44.9515C53.2314 44.6526 53.0443 44.4064 52.8512 44.2423C52.6187 44.0449 52.3777 43.9635 52.0961 43.9635V44.9635ZM51.5541 45.5365C51.7839 45.2213 51.9033 45.0772 51.9892 45.0043C52.0234 44.9753 52.0386 44.97 52.0408 44.9692C52.043 44.9684 52.0558 44.9635 52.0961 44.9635V43.9635C51.8143 43.9635 51.5739 44.0451 51.342 44.2419C51.1497 44.4052 50.9627 44.6503 50.7461 44.9474L51.5541 45.5365ZM51.5509 45.5409L51.5542 45.5364L50.746 44.9475L50.7426 44.952L51.5509 45.5409ZM48.7192 47.2846C50.3032 47.2846 51.0861 46.1782 51.5508 45.541L50.7428 44.9519C50.2596 45.6144 49.7473 46.2846 48.7192 46.2846V47.2846ZM45.8899 45.5411C46.3543 46.178 47.1373 47.2846 48.7192 47.2846V46.2846C47.6935 46.2846 47.1812 45.6148 46.6979 44.9519L45.8899 45.5411ZM45.8866 45.5366L45.8899 45.5411L46.6978 44.9519L46.6945 44.9473L45.8866 45.5366ZM45.3445 44.9635C45.3849 44.9635 45.3979 44.9684 45.4005 44.9693C45.4031 44.9702 45.4185 44.9757 45.4527 45.0046C45.5383 45.0771 45.6576 45.2209 45.8858 45.5355L46.6953 44.9483C46.4793 44.6506 46.2922 44.4052 46.0991 44.2416C45.8668 44.0448 45.626 43.9635 45.3445 43.9635V44.9635ZM44.8031 45.5382C45.0324 45.2224 45.1525 45.0776 45.2386 45.0045C45.273 44.9753 45.2884 44.9699 45.2907 44.969C45.2928 44.9683 45.3052 44.9635 45.3445 44.9635V43.9635C45.0631 43.9635 44.8229 44.0456 44.5912 44.2424C44.3985 44.406 44.211 44.6516 43.9939 44.9505L44.8031 45.5382ZM41.9699 47.287C43.5552 47.287 44.3404 46.1758 44.8032 45.538L43.9938 44.9507C43.5129 45.6134 42.9982 46.287 41.9699 46.287V47.287ZM39.1383 45.5435C39.6029 46.1807 40.3859 47.287 41.9699 47.287V46.287C40.9418 46.287 40.4294 45.6169 39.9463 44.9543L39.1383 45.5435ZM39.1351 45.539L39.1384 45.5436L39.9462 44.9542L39.9429 44.9497L39.1351 45.539ZM38.593 44.966C38.6333 44.966 38.6464 44.9708 38.649 44.9717C38.6516 44.9727 38.667 44.9781 38.7011 45.007C38.7867 45.0796 38.9061 45.2234 39.1342 45.5379L39.9437 44.9508C39.7278 44.6531 39.5407 44.4077 39.3475 44.2441C39.1153 44.0473 38.8744 43.966 38.593 43.966V44.966ZM38.051 45.5389C38.2808 45.2237 38.4002 45.0796 38.486 45.0067C38.5202 44.9777 38.5354 44.9724 38.5376 44.9716C38.5399 44.9708 38.5526 44.966 38.593 44.966V43.966C38.3111 43.966 38.0707 44.0475 37.8389 44.2444C37.6466 44.4076 37.4595 44.6527 37.2429 44.9498L38.051 45.5389ZM35.2183 47.287C36.8061 47.287 37.589 46.1755 38.0516 45.538L37.2423 44.9507C36.7612 45.6137 36.2487 46.287 35.2183 46.287V47.287ZM32.3891 45.5435C32.8535 46.1804 33.6364 47.287 35.2183 47.287V46.287C34.1927 46.287 33.6804 45.6172 33.1971 44.9544L32.3891 45.5435ZM32.3857 45.539L32.3891 45.5435L33.1971 44.9543L33.1937 44.9497L32.3857 45.539ZM31.8437 44.966C31.8841 44.966 31.8971 44.9708 31.8997 44.9717C31.9023 44.9727 31.9177 44.9781 31.9519 45.007C32.0375 45.0796 32.1568 45.2234 32.385 45.5379L33.1945 44.9508C32.9785 44.6531 32.7914 44.4077 32.5983 44.2441C32.366 44.0473 32.1252 43.966 31.8437 43.966V44.966ZM31.3023 45.5406C31.5316 45.2249 31.6517 45.0801 31.7378 45.007C31.7722 44.9777 31.7876 44.9723 31.7899 44.9715C31.792 44.9707 31.8043 44.966 31.8437 44.966V43.966C31.5623 43.966 31.3221 44.048 31.0904 44.2448C30.8977 44.4084 30.7102 44.654 30.4931 44.953L31.3023 45.5406ZM28.4691 47.2894C30.0545 47.2894 30.8396 46.1782 31.3024 45.5404L30.493 44.9531C30.0121 45.6158 29.4974 46.2894 28.4691 46.2894V47.2894ZM25.6398 45.546C26.1042 46.1828 26.8872 47.2894 28.4691 47.2894V46.2894C27.4434 46.2894 26.9311 45.6196 26.4478 44.9568L25.6398 45.546ZM25.6365 45.5414L25.6398 45.546L26.4478 44.9568L26.4445 44.9522L25.6365 45.5414ZM25.0945 44.9684C25.1348 44.9684 25.1478 44.9732 25.1505 44.9742C25.153 44.9751 25.1685 44.9805 25.2026 45.0095C25.2882 45.082 25.4076 45.2258 25.6357 45.5404L26.4452 44.9532C26.2293 44.6555 26.0421 44.4101 25.849 44.2465C25.6168 44.0497 25.3759 43.9684 25.0945 43.9684V44.9684ZM24.553 45.543C24.7823 45.2273 24.9024 45.0825 24.9885 45.0094C25.023 44.9801 25.0384 44.9747 25.0406 44.9739C25.0427 44.9731 25.0551 44.9684 25.0945 44.9684V43.9684C24.8131 43.9684 24.5728 44.0504 24.3411 44.2472C24.1485 44.4109 23.961 44.6565 23.7439 44.9554L24.553 45.543ZM21.7198 47.2918C23.3052 47.2918 24.0903 46.1807 24.5531 45.5429L23.7438 44.9556C23.2629 45.6183 22.7481 46.2918 21.7198 46.2918V47.2918ZM20.2816 46.629C20.6437 47.0554 21.1606 47.2918 21.7198 47.2918V46.2918C21.4509 46.2918 21.2139 46.1819 21.0439 45.9817L20.2816 46.629ZM19.9172 42.1633C19.7853 43.173 19.6802 44.0429 19.6963 44.7585C19.7124 45.4774 19.8509 46.1253 20.2828 46.6303L21.0428 45.9804C20.8293 45.7307 20.71 45.3581 20.696 44.7361C20.682 44.1109 20.7747 43.3195 20.9088 42.2929L19.9172 42.1633ZM19.9216 42.1289L19.9171 42.1642L20.9089 42.2921L20.9134 42.2568L19.9216 42.1289ZM20.1115 39.8296C20.1309 40.0521 20.1116 40.428 20.0694 40.8707C20.0282 41.3024 19.9693 41.7593 19.9216 42.1289L20.9134 42.2568C20.9608 41.8897 21.0218 41.4165 21.0648 40.9657C21.1068 40.5257 21.136 40.0666 21.1077 39.7425L20.1115 39.8296ZM15.6066 46.4907C16.2292 45.2257 17.1422 43.7217 18.1058 42.498C18.5877 41.886 19.0734 41.3554 19.5331 40.9615C20.0021 40.5596 20.4005 40.3379 20.7079 40.2763L20.5113 39.2958C19.9548 39.4074 19.3989 39.7596 18.8824 40.2021C18.3567 40.6526 17.8261 41.2367 17.3201 41.8793C16.3079 43.1648 15.3589 44.7296 14.7094 46.049L15.6066 46.4907ZM14.3323 47.292C14.8726 47.292 15.3674 46.9816 15.6075 46.4889L14.7085 46.0508C14.6341 46.2036 14.4859 46.292 14.3323 46.292V47.292ZM14.2132 47.2855C14.2686 47.2926 14.319 47.292 14.3323 47.292V46.292C14.3273 46.292 14.3247 46.292 14.3224 46.2919C14.3204 46.2919 14.32 46.2919 14.3206 46.2919C14.3216 46.292 14.3291 46.2922 14.3404 46.2937L14.2132 47.2855ZM12.9908 46.3334C13.1809 46.8752 13.6739 47.2555 14.2478 47.2888L14.3058 46.2904C14.1441 46.2811 13.9941 46.1724 13.9344 46.0023L12.9908 46.3334ZM12.8996 36.9545C11.854 38.5986 11.8604 40.8395 12.1083 42.6511C12.3598 44.4888 12.8798 46.0186 12.9911 46.3341L13.9342 46.0015C13.8327 45.7138 13.3373 44.2567 13.0991 42.5155C12.8572 40.7483 12.8994 38.8183 13.7435 37.4912L12.8996 36.9545ZM16.6098 34.8775C15.0056 34.984 13.7038 35.6924 12.8999 36.9542L13.7432 37.4915C14.3548 36.5318 15.3474 35.9635 16.6761 35.8753L16.6098 34.8775ZM18.147 34.4764C18.167 34.4264 18.1489 34.5138 17.8706 34.63C17.6169 34.736 17.2101 34.8373 16.6095 34.8776L16.6764 35.8753C17.3502 35.8302 17.8721 35.7131 18.2561 35.5527C18.6157 35.4025 18.9445 35.1754 19.0755 34.8477L18.147 34.4764ZM17.9291 34.1858C18.0294 34.3025 18.089 34.4072 18.1167 34.4808C18.1304 34.5171 18.1328 34.5365 18.1331 34.5398C18.1334 34.5436 18.1304 34.5178 18.147 34.4765L19.0755 34.8477C19.1795 34.5876 19.1246 34.3196 19.0526 34.1284C18.975 33.9225 18.8462 33.7187 18.6874 33.534L17.9291 34.1858ZM14.4597 33.3804C16.035 32.9411 17.3719 33.5355 17.9286 34.1852L18.688 33.5346C17.8661 32.5753 16.122 31.8787 14.191 32.4172L14.4597 33.3804ZM8.7345 40.4825C9.17369 38.8389 10.0492 37.2065 11.1087 35.9062C12.1764 34.5958 13.3842 33.6787 14.459 33.3806L14.1917 32.417C12.8354 32.7932 11.4654 33.8852 10.3335 35.2745C9.19334 36.6738 8.24746 38.4315 7.7684 40.2244L8.7345 40.4825ZM9.25932 44.8363C8.71513 44.2632 8.49476 43.4932 8.46041 42.6801C8.42609 41.8674 8.58057 41.0609 8.73463 40.482L7.76827 40.2248C7.60082 40.854 7.42105 41.7693 7.4613 42.7223C7.50154 43.6748 7.76456 44.7144 8.53416 45.5249L9.25932 44.8363ZM9.2318 46.8774C9.7886 46.3205 9.80214 45.4114 9.26034 44.8374L8.53314 45.5238C8.70371 45.7045 8.69875 45.9962 8.52466 46.1703L9.2318 46.8774ZM7.20665 46.8493C7.75875 47.4304 8.66431 47.4414 9.23068 46.8785L8.52578 46.1692C8.35663 46.3373 8.09653 46.334 7.93162 46.1605L7.20665 46.8493ZM5.98278 39.7238C5.21813 42.5867 5.59523 45.1538 7.20671 46.8493L7.93155 46.1604C6.64258 44.8042 6.2379 42.6439 6.94891 39.9818L5.98278 39.7238ZM13.7083 30.5851C11.8675 31.0952 10.1804 32.4844 8.84589 34.1596C7.50642 35.8409 6.47928 37.8633 5.98275 39.7239L6.94894 39.9817C7.4075 38.2634 8.36831 36.3639 9.62804 34.7827C10.8927 33.1952 12.416 31.9809 13.9753 31.5488L13.7083 30.5851ZM20.0779 32.282C18.8624 30.863 16.4314 29.8298 13.7082 30.5852L13.9754 31.5488C16.3175 30.8992 18.3505 31.8026 19.3184 32.9325L20.0779 32.282ZM20.7863 35.5759C21.2308 34.4753 20.9248 33.2679 20.0774 32.2814L19.3189 32.9331C19.9841 33.7075 20.1315 34.527 19.859 35.2014L20.7863 35.5759ZM16.7964 37.7719C18.046 37.6884 18.9451 37.3929 19.5872 36.9815C20.2344 36.5667 20.5941 36.0506 20.7861 35.5763L19.8592 35.2011C19.7389 35.4981 19.5077 35.8447 19.0476 36.1395C18.5824 36.4377 17.8578 36.6987 16.7297 36.7742L16.7964 37.7719ZM15.2948 38.5317C15.5759 38.0914 16.0285 37.8234 16.7965 37.7719L16.7296 36.7742C15.7258 36.8414 14.9434 37.2236 14.4519 37.9937L15.2948 38.5317ZM15.1181 43.2912C14.9452 42.445 14.8181 41.5062 14.8258 40.641C14.8336 39.7635 14.9799 39.0265 15.2952 38.5312L14.4516 37.9942C13.9874 38.7235 13.8342 39.6845 13.8258 40.6321C13.8173 41.5918 13.9573 42.6051 14.1383 43.4913L15.1181 43.2912ZM20.9887 37.3666C19.5102 37.3193 18.1407 38.2608 17.0206 39.3892C15.8826 40.5357 14.9029 41.9756 14.2008 43.1318L15.0556 43.6508C15.7413 42.5215 16.6734 41.1586 17.7303 40.0937C18.8052 39.0109 19.9141 38.3327 20.9567 38.3661L20.9887 37.3666ZM22.3931 38.0594C22.0423 37.6319 21.5397 37.3859 20.9902 37.3666L20.9552 38.366C21.2199 38.3753 21.4528 38.49 21.6201 38.6938L22.3931 38.0594ZM22.937 39.553C22.8857 38.9955 22.7392 38.4779 22.3919 38.0579L21.6213 38.6952C21.792 38.9017 21.8999 39.1958 21.9412 39.6446L22.937 39.553ZM31.4777 36.2939C26.507 36.8087 23.9403 37.9753 22.1583 39.1851L22.72 40.0125C24.3426 38.9108 26.7447 37.7895 31.5807 37.2886L31.4777 36.2939ZM36.274 1.39136C35.7618 2.01081 25.678 14.6067 31.0431 36.9082L32.0153 36.6743C26.7497 14.7861 36.6502 2.50562 37.0447 2.02863L36.274 1.39136ZM36.3556 1.31169C36.3537 1.31331 36.3282 1.33339 36.3013 1.36099L37.0174 2.059C37.0071 2.06953 36.9983 2.07752 36.9924 2.08258C36.9874 2.08693 36.9832 2.09026 36.9859 2.08811L36.3556 1.31169ZM36.2811 1.39125C36.3023 1.36227 36.323 1.34114 36.3374 1.32767C36.3496 1.31635 36.3605 1.30778 36.3556 1.31173L36.9859 2.08807C36.9862 2.08784 37.0021 2.07521 37.0189 2.0595C37.0381 2.04164 37.0633 2.01579 37.0885 1.98128L36.2811 1.39125ZM36.4426 1.22565C36.4024 1.26053 36.3586 1.30122 36.3131 1.35188L37.0565 2.02065C37.0665 2.0096 37.0782 1.99808 37.0982 1.98075L36.4426 1.22565ZM36.5459 1.14068C36.4891 1.17954 36.4451 1.22052 36.4123 1.25423L37.1284 1.95217C37.1326 1.9479 37.1257 1.95566 37.1105 1.96604L36.5459 1.14068ZM36.6665 1.06667C36.6392 1.08225 36.5935 1.1081 36.5459 1.14067L37.1105 1.96605C37.1197 1.95974 37.1308 1.95307 37.163 1.93468L36.6665 1.06667ZM36.6858 1.05559L36.6659 1.06699L37.1635 1.93437L37.1834 1.92297L36.6858 1.05559ZM36.7849 1.00113C36.7266 1.02773 36.679 1.05919 36.6647 1.0684L37.2045 1.91016C37.2094 1.907 37.2121 1.90527 37.2145 1.90378C37.2167 1.90242 37.2173 1.90207 37.2169 1.90227C37.2163 1.90268 37.21 1.90637 37.1999 1.91098L36.7849 1.00113ZM37.0023 0.926645C36.9361 0.943631 36.8666 0.965728 36.7941 0.997059L37.1907 1.91505C37.2061 1.90841 37.2245 1.90203 37.2508 1.89528L37.0023 0.926645ZM36.9971 0.928906C36.9899 0.931388 36.995 0.929535 37.0021 0.927463C37.0102 0.925096 37.0288 0.919951 37.0541 0.916249L37.1991 1.90568C37.2636 1.89622 37.3188 1.87575 37.3207 1.87511L36.9971 0.928906ZM36.9983 0.928498L36.9983 0.928504L37.3195 1.87551L37.3195 1.8755L36.9983 0.928498ZM37.0682 0.910304L37.0682 0.910305L37.2497 1.8937L37.2497 1.89369L37.0682 0.910304ZM37.0344 0.916926C37.0166 0.922164 37.0006 0.927709 36.9971 0.928918L37.3208 1.87508C37.3239 1.87401 37.324 1.87398 37.3237 1.87409C37.3231 1.8743 37.3201 1.87526 37.3158 1.87652L37.0344 0.916926ZM37.3694 0.875366C37.2667 0.875366 37.1646 0.886299 37.064 0.90924L37.2863 1.88421C37.3106 1.87867 37.338 1.87537 37.3694 1.87537V0.875366ZM37.5233 0.880415L37.3868 0.875668L37.352 1.87506L37.4885 1.87981L37.5233 0.880415ZM38.5974 1.39701C38.3272 1.06869 37.9291 0.880112 37.5059 0.880112V1.88011C37.6285 1.88011 37.7439 1.93361 37.8253 2.03247L38.5974 1.39701ZM43.8742 36.7383C49.1433 14.5445 39.1089 2.01263 38.5959 1.3952L37.8267 2.03428C38.2204 2.50801 48.0726 14.7253 42.9012 36.5073L43.8742 36.7383ZM59.2565 43.1493C59.1977 42.9274 58.7029 41.3654 56.4667 39.7601C54.2367 38.1592 50.3068 36.5381 43.4177 36.1237L43.3577 37.1219C50.1193 37.5286 53.8498 39.1125 55.8836 40.5725C57.9113 42.0281 58.2838 43.3828 58.2898 43.4054L59.2565 43.1493ZM59.2636 43.1899C59.2684 43.2097 59.2707 43.2251 59.2716 43.2318C59.2721 43.2355 59.2725 43.2382 59.2726 43.2392C59.2727 43.2401 59.2727 43.2406 59.2725 43.239C59.2724 43.2379 59.2721 43.2347 59.2717 43.2313C59.2713 43.2276 59.2706 43.2222 59.2697 43.2159C59.2681 43.2041 59.2649 43.1836 59.2589 43.159L58.2873 43.3957C58.2825 43.3758 58.2802 43.3604 58.2793 43.3537C58.2788 43.35 58.2784 43.3473 58.2783 43.3463C58.2782 43.3454 58.2782 43.3449 58.2784 43.3466C58.2785 43.3476 58.2788 43.3508 58.2792 43.3543C58.2796 43.3579 58.2803 43.3633 58.2812 43.3696C58.2828 43.3815 58.286 43.4019 58.292 43.4265L59.2636 43.1899ZM59.2861 43.3266L59.2722 43.234L58.2833 43.3823L58.2972 43.4749L59.2861 43.3266ZM59.3009 43.5004C59.3009 43.4267 59.2906 43.359 59.2869 43.3318L58.2964 43.4697C58.2976 43.4784 58.2985 43.4846 58.2992 43.4904C58.3 43.496 58.3004 43.4998 58.3007 43.5025C58.3013 43.5082 58.3009 43.5065 58.3009 43.5004H59.3009ZM59.2983 43.4539C59.2986 43.4561 59.3009 43.475 59.3009 43.5004H58.3009C58.3009 43.533 58.3039 43.5592 58.3049 43.5686L59.2983 43.4539ZM59.2985 43.4551L59.2981 43.4516L58.3052 43.5708L58.3056 43.5742L59.2985 43.4551ZM59.3032 43.5289C59.3032 43.5067 59.3019 43.4884 59.3008 43.4764C59.2998 43.4654 59.2985 43.4555 59.2984 43.4545L58.3057 43.5749C58.3061 43.5785 58.3055 43.5734 58.3049 43.5671C58.3043 43.5599 58.3032 43.5463 58.3032 43.5289H59.3032ZM59.2949 43.6439C59.2958 43.6364 59.3032 43.5851 59.3032 43.5289H58.3032C58.3032 43.5177 58.3039 43.5097 58.3041 43.5077C58.3042 43.507 58.3042 43.5074 58.3038 43.5102C58.3037 43.5115 58.3035 43.5131 58.3032 43.5153C58.303 43.5173 58.3026 43.5202 58.3022 43.523L59.2949 43.6439ZM59.2971 43.6219L59.2973 43.6186L58.2998 43.5483L58.2996 43.5516L59.2971 43.6219ZM59.2765 43.7878C59.2914 43.7163 59.2954 43.6472 59.2972 43.6213L58.2996 43.5521C58.299 43.5605 58.2985 43.5667 58.2981 43.5725C58.2977 43.5781 58.2973 43.582 58.297 43.5849C58.2963 43.5913 58.2962 43.5897 58.2976 43.5833L59.2765 43.7878ZM59.2543 43.8893C59.2604 43.8642 59.2723 43.8167 59.2805 43.7657L58.2935 43.6053C58.2925 43.6113 58.2905 43.6207 58.2827 43.6526L59.2543 43.8893ZM59.2456 43.9209C59.2465 43.9178 59.2471 43.9159 59.2474 43.9146L58.2896 43.6273C58.2872 43.6353 58.2851 43.6425 58.2834 43.6486L59.2456 43.9209ZM59.2424 43.9326C59.2437 43.9276 59.2447 43.9243 59.2455 43.9212L58.2835 43.6484C58.2816 43.6548 58.2799 43.6611 58.2787 43.6655L59.2424 43.9326ZM59.204 44.0493C59.2248 43.9981 59.2379 43.9488 59.2424 43.9325L58.2786 43.6656C58.2771 43.6712 58.2761 43.6748 58.2752 43.6781C58.2743 43.6812 58.2738 43.6828 58.2736 43.6836C58.273 43.6853 58.2743 43.6808 58.2775 43.673L59.204 44.0493ZM40.6857 39.0466H38.2941V40.0466H40.6857V39.0466ZM37.86 5.47775C40.5122 10.1172 45.4259 21.8899 40.2065 39.4038L41.1649 39.6894C46.4791 21.8571 41.4837 9.80181 38.7282 4.98147L37.86 5.47775ZM38.7941 39.5466V5.22961H37.7941V39.5466H38.7941ZM36.9438 39.5466V5.47876H35.9438V39.5466H36.9438ZM34.1886 40.0466H36.4438V39.0466H34.1886V40.0466ZM36.0068 5.23579C33.2319 10.2265 28.4981 22.2039 33.7095 39.6894L34.6678 39.4038C29.5496 22.2309 34.2063 10.532 36.8808 5.72173L36.0068 5.23579ZM55.3181 44.2586L55.3134 44.2741L56.2699 44.566L56.2746 44.5505L55.3181 44.2586ZM55.8617 44.9003L55.8625 44.9002L55.7303 43.909L55.7295 43.9091L55.8617 44.9003ZM56.2103 42.6828C55.64 43.1967 55.4241 43.9093 55.3174 44.2586L56.2738 44.5507C56.3846 44.188 56.5387 43.733 56.8797 43.4257L56.2103 42.6828ZM42.884 38.9993C52.1776 39.4908 55.2448 42.1864 56.149 43.3595L56.941 42.749C55.7965 41.2641 52.4014 38.5012 42.9368 38.0007L42.884 38.9993ZM42.7241 40.9362C42.9666 40.1561 43.1881 39.3884 43.3931 38.6306L42.4278 38.3694C42.2257 39.1163 42.0077 39.8721 41.7692 40.6393L42.7241 40.9362ZM41.3654 41.9499C41.9951 41.9499 42.5388 41.5313 42.724 40.9364L41.7692 40.6392C41.7091 40.8322 41.5406 40.9499 41.3654 40.9499V41.9499ZM33.5063 41.9499H41.3654V40.9499H33.5063V41.9499ZM32.1476 40.9364C32.3327 41.5313 32.8766 41.9499 33.5063 41.9499V40.9499C33.331 40.9499 33.1625 40.8322 33.1024 40.6392L32.1476 40.9364ZM31.5252 38.7889C31.7183 39.4927 31.9232 40.2074 32.1471 40.9349L33.1029 40.6407C32.8827 39.9252 32.6806 39.2207 32.4896 38.5244L31.5252 38.7889ZM22.6178 42.4443C23.4169 41.8098 24.3132 41.1372 25.7291 40.5475C27.1506 39.9554 29.1181 39.438 32.0555 39.1543L31.9594 38.1589C28.95 38.4496 26.8803 38.9847 25.3446 39.6243C23.8035 40.2663 22.8229 41.0046 21.9959 41.6611L22.6178 42.4443ZM22.782 42.281C22.789 42.2251 22.7957 42.1712 22.8027 42.1171L21.811 41.9883C21.8036 42.0455 21.7966 42.102 21.7897 42.1575L22.782 42.281ZM22.7467 42.5549C22.7599 42.4588 22.7712 42.3676 22.782 42.281L21.7897 42.1575C21.7788 42.2449 21.7682 42.3301 21.756 42.4191L22.7467 42.5549ZM22.5495 44.7932C22.5245 44.2798 22.654 43.2675 22.7472 42.5516L21.7555 42.4225C21.6683 43.0925 21.5202 44.2161 21.5507 44.8419L22.5495 44.7932ZM22.2623 43.8295C21.9692 44.2355 21.8565 44.3503 21.7916 44.3896L22.3087 45.2455C22.5815 45.0807 22.8111 44.7778 23.0731 44.4149L22.2623 43.8295ZM22.267 43.8231L22.2637 43.8277L23.0717 44.4167L23.0751 44.4122L22.267 43.8231ZM25.0986 42.0796C23.5146 42.0796 22.7316 43.1859 22.267 43.8231L23.075 44.4122C23.5581 43.7497 24.0705 43.0796 25.0986 43.0796V42.0796ZM27.9279 43.823C27.4635 43.1861 26.6805 42.0796 25.0986 42.0796V43.0796C26.1243 43.0796 26.6366 43.7493 27.1199 44.4122L27.9279 43.823ZM27.9312 43.8276L27.9279 43.823L27.1199 44.4122L27.1232 44.4168L27.9312 43.8276ZM28.4732 44.4006C28.4329 44.4006 28.4199 44.3957 28.4172 44.3948C28.4147 44.3939 28.3993 44.3884 28.3651 44.3595C28.2795 44.287 28.1601 44.1432 27.932 43.8286L27.1225 44.4158C27.3384 44.7135 27.5256 44.9589 27.7187 45.1225C27.9509 45.3193 28.1918 45.4006 28.4732 45.4006V44.4006ZM29.0152 43.8276C28.7854 44.1428 28.6661 44.2869 28.5802 44.3598C28.546 44.3889 28.5308 44.3941 28.5286 44.3949C28.5263 44.3957 28.5136 44.4006 28.4732 44.4006V45.4006C28.7551 45.4006 28.9955 45.319 29.2273 45.1222C29.4196 44.959 29.6067 44.7138 29.8233 44.4167L29.0152 43.8276ZM29.0187 43.8229L29.0153 43.8275L29.8232 44.4169L29.8265 44.4123L29.0187 43.8229ZM31.8502 42.0796C30.2662 42.0796 29.4832 43.1859 29.0186 43.8231L29.8266 44.4122C30.3097 43.7497 30.8221 43.0796 31.8502 43.0796V42.0796ZM34.6795 43.823C34.2151 43.1861 33.4321 42.0796 31.8502 42.0796V43.0796C32.8759 43.0796 33.3881 43.7493 33.8714 44.4122L34.6795 43.823ZM34.6828 43.8276L34.6794 43.823L33.8715 44.4122L33.8748 44.4168L34.6828 43.8276ZM35.2248 44.4006C35.1854 44.4006 35.173 44.3958 35.1707 44.395C35.1684 44.3942 35.1529 44.3887 35.1184 44.3595C35.0323 44.2865 34.9122 44.1422 34.6828 43.8276L33.8748 44.4168C34.0918 44.7144 34.2794 44.9593 34.472 45.1225C34.7035 45.3186 34.9436 45.4006 35.2248 45.4006V44.4006ZM35.7668 43.8276C35.537 44.1428 35.4176 44.2869 35.3317 44.3598C35.2975 44.3889 35.2823 44.3941 35.2801 44.3949C35.2779 44.3957 35.2652 44.4006 35.2248 44.4006V45.4006C35.5067 45.4006 35.747 45.319 35.9789 45.1222C36.1712 44.959 36.3583 44.7138 36.5749 44.4167L35.7668 43.8276ZM38.5994 42.0796C37.0116 42.0796 36.2288 43.191 35.7661 43.8285L36.5755 44.4158C37.0566 43.7528 37.569 43.0796 38.5994 43.0796V42.0796ZM41.4287 43.823C40.9643 43.1861 40.1813 42.0796 38.5994 42.0796V43.0796C39.6251 43.0796 40.1374 43.7493 40.6207 44.4122L41.4287 43.823ZM41.4321 43.8277L41.4288 43.8231L40.6206 44.4121L40.624 44.4167L41.4321 43.8277ZM41.9764 44.403C41.9361 44.403 41.9231 44.3982 41.9205 44.3972C41.9179 44.3963 41.9024 44.3908 41.868 44.3617C41.782 44.2887 41.662 44.1442 41.4326 43.8284L40.6235 44.416C40.8405 44.7149 41.0282 44.9607 41.2214 45.1245C41.4539 45.3216 41.6947 45.403 41.9764 45.403V44.403ZM42.5184 43.8301C42.2886 44.1453 42.1692 44.2893 42.0833 44.3622C42.0491 44.3913 42.0339 44.3966 42.0317 44.3974C42.0295 44.3982 42.0167 44.403 41.9764 44.403V45.403C42.2582 45.403 42.4986 45.3214 42.7305 45.1246C42.9227 44.9614 43.1098 44.7163 43.3264 44.4192L42.5184 43.8301ZM42.5216 43.8257L42.5183 43.8302L43.3265 44.419L43.3298 44.4145L42.5216 43.8257ZM45.3533 42.082C43.7693 42.082 42.9863 43.1883 42.5217 43.8255L43.3297 44.4147C43.8128 43.7521 44.3252 43.082 45.3533 43.082V42.082ZM48.1826 43.8255C47.7182 43.1886 46.9352 42.082 45.3533 42.082V43.082C46.379 43.082 46.8913 43.7518 47.3746 44.4146L48.1826 43.8255ZM48.1858 43.8299L48.1825 43.8253L47.3747 44.4148L47.378 44.4194L48.1858 43.8299ZM48.7279 44.403C48.6876 44.403 48.6746 44.3982 48.6719 44.3972C48.6693 44.3963 48.6539 44.3909 48.6198 44.3619C48.5342 44.2894 48.4148 44.1456 48.1867 43.831L47.3772 44.4182C47.5931 44.7159 47.7803 44.9613 47.9734 45.1249C48.2056 45.3217 48.4465 45.403 48.7279 45.403V44.403ZM49.2717 43.8284C49.0423 44.1442 48.9224 44.2887 48.8363 44.3617C48.8019 44.3908 48.7864 44.3963 48.7838 44.3972C48.7812 44.3982 48.7683 44.403 48.7279 44.403V45.403C49.0096 45.403 49.2505 45.3215 49.4829 45.1245C49.6761 44.9607 49.8638 44.7148 50.0808 44.416L49.2717 43.8284ZM52.1049 42.0796C50.5196 42.0796 49.7344 43.1907 49.2716 43.8285L50.081 44.4158C50.5618 43.7531 51.0766 43.0796 52.1049 43.0796V42.0796ZM54.9365 43.823C54.4719 43.1858 53.6889 42.0796 52.1049 42.0796V43.0796C53.133 43.0796 53.6454 43.7497 54.1285 44.4122L54.9365 43.823ZM54.9398 43.8276L54.9365 43.823L54.1285 44.4122L54.1318 44.4168L54.9398 43.8276ZM55.4818 44.4006C55.4424 44.4006 55.43 44.3958 55.4277 44.395C55.4254 44.3942 55.4099 44.3887 55.3754 44.3595C55.2893 44.2865 55.1692 44.1422 54.9398 43.8276L54.1318 44.4168C54.3488 44.7144 54.5364 44.9593 54.729 45.1225C54.9605 45.3186 55.2006 45.4006 55.4818 45.4006V44.4006ZM55.6229 44.884C55.4181 44.4278 55.4184 44.4277 55.4186 44.4276C55.4187 44.4276 55.4189 44.4275 55.4191 44.4274C55.4194 44.4273 55.4197 44.4271 55.42 44.427C55.4206 44.4267 55.4212 44.4264 55.4218 44.4262C55.4231 44.4256 55.4243 44.4251 55.4255 44.4246C55.4279 44.4236 55.4303 44.4226 55.4326 44.4216C55.4373 44.4197 55.4417 44.4179 55.446 44.4163C55.4546 44.4131 55.4624 44.4105 55.4693 44.4084C55.4832 44.4042 55.4936 44.4019 55.4997 44.4008C55.5117 44.3985 55.5075 44.4006 55.4818 44.4006V45.4006C55.5602 45.4006 55.6265 45.3943 55.6831 45.3838C55.7115 45.3785 55.7376 45.3721 55.7616 45.3647C55.7737 45.361 55.7852 45.3571 55.7962 45.353C55.8017 45.351 55.8071 45.3489 55.8123 45.3467C55.8149 45.3456 55.8175 45.3445 55.8201 45.3434C55.8214 45.3429 55.8226 45.3423 55.8239 45.3418C55.8245 45.3415 55.8252 45.3412 55.8258 45.341C55.8261 45.3408 55.8264 45.3407 55.8267 45.3405C55.8269 45.3405 55.8271 45.3404 55.8272 45.3403C55.8274 45.3402 55.8277 45.3401 55.6229 44.884ZM55.3134 44.274C55.2885 44.3559 55.2594 44.4508 55.2319 44.5309C55.2181 44.5713 55.207 44.6007 55.1993 44.6192C55.1954 44.6285 55.1946 44.6296 55.1968 44.6253C55.198 44.6229 55.2015 44.6165 55.2071 44.6074C55.2123 44.5992 55.2232 44.5824 55.2404 44.562L56.0055 45.2059C56.0717 45.1272 56.1098 45.0337 56.1214 45.0062C56.1416 44.958 56.1609 44.9047 56.1778 44.8554C56.2118 44.7563 56.2459 44.6445 56.2699 44.566L55.3134 44.274Z" fill="#222532"/>
<path d="M7.29412 31.1358C7.17616 30.991 6.10296 29.7308 4.72909 29.7308C4.09304 29.7308 3.18403 29.999 2.46935 31.2735L1.67136 32.6974H8.57539L7.29412 31.1358Z" fill="white" stroke="#222532"/>
<path fill-rule="evenodd" clip-rule="evenodd" d="M5.49973 34.5745L6.45037 34.6766L6.33013 35.6496C5.98085 38.2791 3.27934 41.0535 3.16369 41.1721L1.91238 42.4442L1.60245 40.6643C1.23468 38.5711 1.49604 36.962 2.37728 35.8822C3.61006 34.3704 5.49973 34.5745 5.49973 34.5745ZM3.7997 37.0997C3.63548 37.2991 3.5129 37.553 3.42732 37.8521L3.42733 37.8521C3.62392 37.5507 3.81358 37.235 3.97549 36.917C3.91535 36.9716 3.85522 37.0309 3.7997 37.0997Z" fill="white"/>
<path d="M6.45037 34.6766L6.94659 34.7379L7.0089 34.2337L6.50374 34.1794L6.45037 34.6766ZM5.49973 34.5745L5.44604 35.0716L5.44636 35.0717L5.49973 34.5745ZM6.33013 35.6496L6.8258 35.7154L6.82636 35.7109L6.33013 35.6496ZM3.16369 41.1721L3.52015 41.5228L3.52177 41.5211L3.16369 41.1721ZM1.91238 42.4442L1.41979 42.53L1.58667 43.4883L2.26883 42.7948L1.91238 42.4442ZM1.60245 40.6643L2.09503 40.5785L2.0949 40.5777L1.60245 40.6643ZM2.37728 35.8822L2.76465 36.1983L2.76478 36.1982L2.37728 35.8822ZM3.42732 37.8521L2.94662 37.7145L2.89369 37.8994L2.97836 38.0721L3.42732 37.8521ZM3.7997 37.0997L4.18565 37.4177L4.18889 37.4136L3.7997 37.0997ZM3.42733 37.8521L2.97836 38.0722L3.36554 38.862L3.84611 38.1252L3.42733 37.8521ZM3.97549 36.917L4.42107 37.1438L3.63946 36.5467L3.97549 36.917ZM6.50374 34.1794L5.5531 34.0774L5.44636 35.0717L6.397 35.1737L6.50374 34.1794ZM6.82636 35.7109L6.94659 34.7379L5.95414 34.6153L5.83391 35.5883L6.82636 35.7109ZM3.52177 41.5211C3.58783 41.4533 4.31242 40.7088 5.06752 39.6412C5.81357 38.5863 6.63473 37.1537 6.82578 35.7154L5.83449 35.5838C5.67625 36.775 4.97201 38.0444 4.25108 39.0637C3.53919 40.0703 2.8552 40.7723 2.80562 40.8231L3.52177 41.5211ZM2.26883 42.7948L3.52015 41.5227L2.80724 40.8215L1.55593 42.0936L2.26883 42.7948ZM1.10986 40.75L1.41979 42.53L2.40497 42.3584L2.09503 40.5785L1.10986 40.75ZM1.98991 35.566C0.977556 36.8065 0.7303 38.5897 1.10999 40.7508L2.0949 40.5777C1.73907 38.5524 2.01453 37.1174 2.76465 36.1983L1.98991 35.566ZM5.49973 34.5745C5.55342 34.0774 5.55321 34.0774 5.55298 34.0774C5.5529 34.0774 5.55267 34.0773 5.5525 34.0773C5.55216 34.0773 5.5518 34.0773 5.5514 34.0772C5.55061 34.0771 5.5497 34.077 5.54867 34.0769C5.54662 34.0767 5.5441 34.0765 5.54112 34.0762C5.53518 34.0756 5.52741 34.0749 5.51789 34.0742C5.49886 34.0727 5.47282 34.0709 5.4404 34.0693C5.37562 34.0662 5.28503 34.0639 5.17379 34.0664C4.95196 34.0715 4.64424 34.0959 4.29329 34.1731C3.59158 34.3276 2.69711 34.6988 1.98979 35.5662L2.76478 36.1982C3.29023 35.5538 3.95699 35.2711 4.50831 35.1498C4.78388 35.0891 5.02562 35.07 5.19663 35.0661C5.28181 35.0642 5.34848 35.066 5.39186 35.0681C5.41352 35.0692 5.42927 35.0703 5.43853 35.071C5.44315 35.0714 5.44614 35.0717 5.44742 35.0718C5.44806 35.0719 5.44827 35.0719 5.44805 35.0719C5.44793 35.0718 5.44771 35.0718 5.44738 35.0718C5.44721 35.0718 5.44701 35.0717 5.44679 35.0717C5.44668 35.0717 5.44649 35.0717 5.44644 35.0717C5.44624 35.0717 5.44604 35.0716 5.49973 34.5745ZM3.90802 37.9896C3.98005 37.7379 4.07588 37.5509 4.18563 37.4176L3.41378 36.7818C3.19509 37.0473 3.04574 37.3681 2.94662 37.7145L3.90802 37.9896ZM3.87629 37.632L3.87628 37.632L2.97836 38.0721L2.97836 38.0722L3.87629 37.632ZM3.52991 36.6901C3.37848 36.9876 3.19874 37.2873 3.00854 37.5789L3.84611 38.1252C4.0491 37.814 4.24869 37.4824 4.42107 37.1438L3.52991 36.6901ZM4.18889 37.4136C4.22205 37.3725 4.26164 37.3325 4.31152 37.2872L3.63946 36.5467C3.56906 36.6106 3.48838 36.6893 3.41052 36.7858L4.18889 37.4136Z" fill="#222532"/>
<path fill-rule="evenodd" clip-rule="evenodd" d="M12.623 29.2913C12.623 30.2833 11.8343 31.0902 10.8675 31.0902C9.9007 31.0902 9.11432 30.2833 9.11432 29.2913C9.11432 28.2993 9.9007 27.4924 10.8675 27.4924C11.8366 27.4924 12.623 28.2993 12.623 29.2913ZM10.9646 29.2913C10.9646 29.2367 10.9207 29.1917 10.8675 29.1917C10.8143 29.1917 10.7727 29.2367 10.7727 29.2913C10.7727 29.4005 10.9646 29.4005 10.9646 29.2913Z" fill="white"/>
<path d="M10.8675 31.5902C12.1217 31.5902 13.123 30.5481 13.123 29.2913H12.123C12.123 30.0185 11.547 30.5902 10.8675 30.5902V31.5902ZM8.61432 29.2913C8.61432 30.5473 9.61251 31.5902 10.8675 31.5902V30.5902C10.1889 30.5902 9.61432 30.0194 9.61432 29.2913H8.61432ZM10.8675 26.9924C9.61251 26.9924 8.61432 28.0354 8.61432 29.2913H9.61432C9.61432 28.5633 10.1889 27.9924 10.8675 27.9924V26.9924ZM13.123 29.2913C13.123 28.035 12.1244 26.9924 10.8675 26.9924V27.9924C11.5488 27.9924 12.123 28.5637 12.123 29.2913H13.123ZM10.8675 29.6917C10.6325 29.6917 10.4646 29.5007 10.4646 29.2913H11.4646C11.4646 28.9728 11.2089 28.6917 10.8675 28.6917V29.6917ZM11.2727 29.2913C11.2727 29.4847 11.1178 29.6917 10.8675 29.6917V28.6917C10.5108 28.6917 10.2727 28.9888 10.2727 29.2913H11.2727ZM10.4646 29.2913C10.4646 29.1527 10.5336 29.0293 10.6325 28.9543C10.7175 28.8899 10.8055 28.8732 10.8687 28.8732C10.9318 28.8732 11.0198 28.8899 11.1048 28.9543C11.2037 29.0293 11.2727 29.1527 11.2727 29.2913H10.2727C10.2727 29.4845 10.3656 29.6488 10.5006 29.7512C10.6215 29.8428 10.7575 29.8732 10.8687 29.8732C10.9798 29.8732 11.1158 29.8428 11.2367 29.7512C11.3717 29.6488 11.4646 29.4845 11.4646 29.2913H10.4646Z" fill="#222532"/>
</svg>
