<svg width="51" height="33" viewBox="0 0 51 33" fill="none" xmlns="http://www.w3.org/2000/svg">
<path fill-rule="evenodd" clip-rule="evenodd" d="M48.9731 22.2761V25.0226L48.9727 25.0227C49.5336 25.1387 49.9562 25.6393 49.9562 26.2346V27.2222C49.9562 27.8214 49.5336 28.32 48.9727 28.436V28.4611H42.5165C42.1591 30.7012 40.2325 32.4194 37.9082 32.4194C35.5838 32.4194 33.6572 30.7012 33.3018 28.4611H16.2074C15.8501 30.7012 13.9235 32.4194 11.5992 32.4194C9.27483 32.4194 7.34624 30.6992 6.99087 28.4611H3.23933L2.50361 28.463C1.82361 28.463 1.27231 27.9064 1.27231 27.2241V26.2365C1.27231 25.5523 1.82553 24.9976 2.50361 24.9976H3.23933V13.8667C3.23933 10.4553 5.99782 7.67986 9.38823 7.67986L15.0626 7.67599V5.70261C9.07744 5.12861 4.00602 4.0559 2.47121 2.5116C2.24262 2.28355 2.18883 1.93177 2.33866 1.64379C2.4885 1.35774 2.80355 1.19925 3.12242 1.25723C8.01686 2.13857 15.6277 2.25646 22.4238 2.25646C23.8683 2.25646 25.2879 2.2526 26.6518 2.2468C26.9985 2.24574 27.3417 2.24454 27.6808 2.24335L27.6809 2.24335L27.681 2.24335L27.6814 2.24335L27.6816 2.24335L27.6818 2.24335L27.6819 2.24334C28.5805 2.24019 29.451 2.23714 30.2861 2.23714L36.6175 2.23907H36.6194C40.905 2.23907 43.5443 2.21008 46.9674 2.04193C47.3054 2.02837 47.6185 2.24871 47.7127 2.57922C47.8068 2.90974 47.6627 3.26345 47.365 3.4316C46.8713 3.70992 46.2566 3.9689 45.5286 4.20857V5.71036C45.5286 6.37912 45.1751 6.957 44.5816 7.25851C44.3299 7.38608 44.0648 7.44986 43.8017 7.44986C43.4444 7.44986 43.089 7.33389 42.7817 7.10389L40.4017 5.32769C37.3705 5.77224 33.6171 6.05443 29.3028 6.15493V7.68181L34.4642 7.67988C37.7531 7.67988 40.7862 8.78737 43.2219 10.6486L43.4236 10.8071C45.4617 12.4208 47.0599 14.572 48.0069 17.0479L48.0127 17.0595L48.0261 17.0924C48.0395 17.1307 48.054 17.1679 48.0684 17.2049L48.0684 17.205L48.0685 17.2053L48.0686 17.2055C48.081 17.2373 48.0933 17.269 48.1049 17.3011L48.3988 18.0684H48.3565C48.7561 19.402 48.9731 20.8149 48.9731 22.2761ZM35.45 16.5859H46.2012H46.2015C45.3755 14.8716 44.1845 13.3504 42.7073 12.1328H35.45C35.3175 12.1328 35.2041 12.2468 35.2041 12.3802V16.3385C35.2041 16.4719 35.3175 16.5859 35.45 16.5859ZM44.0556 5.71032C44.0556 5.81275 44.0114 5.8862 43.9192 5.93259C43.827 5.97897 43.7444 5.97124 43.6618 5.90939L42.4247 4.98745C43.0049 4.87535 43.5485 4.75552 44.0556 4.62988L44.0556 5.71032ZM25.7041 3.736L25.7039 3.736C24.6354 3.73935 23.5388 3.74278 22.4262 3.74278L22.4267 3.74274C18.0604 3.74274 13.3579 3.69249 9.22602 3.42383C13.1945 4.17764 18.9018 4.71108 25.6152 4.71108C31.7848 4.71108 37.1809 4.34775 41.0976 3.70799C39.7626 3.72345 38.3199 3.72925 36.6219 3.72925H36.6199L30.2866 3.72345C29.138 3.72345 27.922 3.72731 26.658 3.73311L25.7041 3.736ZM16.5385 5.83594C19.4986 6.07367 22.622 6.19543 25.6148 6.19543C26.3658 6.19543 27.1035 6.18963 27.8277 6.17997V7.67978H16.5385V5.83594ZM8.40339 27.7192C8.40339 29.4935 9.83641 30.9353 11.5998 30.9353C13.3632 30.9353 14.7962 29.4935 14.7962 27.7192C14.7962 25.9449 13.3632 24.5031 11.5998 24.5031C9.83641 24.5031 8.40339 25.9449 8.40339 27.7192ZM37.9087 30.9353C36.1453 30.9353 34.7123 29.4935 34.7123 27.7192C34.7123 25.9449 36.1453 24.5031 37.9087 24.5031C39.6721 24.5031 41.1051 25.9449 41.1051 27.7192C41.1051 29.4935 39.6721 30.9353 37.9087 30.9353ZM37.9086 23.0186C40.233 23.0186 42.1616 24.7369 42.5169 26.9769H48.4813V26.4821H44.0555V24.9978H47.4978V22.2783C47.4978 20.8055 47.252 19.3927 46.8063 18.0707H35.4497C34.5008 18.0707 33.7286 17.2937 33.7286 16.3389V12.3806C33.7286 11.4258 34.5008 10.6488 35.4497 10.6488H40.4769C38.6768 9.70365 36.631 9.16443 34.4642 9.16443H9.3887C6.81082 9.16443 4.71511 11.275 4.71511 13.8669V16.5863H12.1259V18.0707H4.71511V24.9978H5.69862V26.4821H2.74809V26.9769H6.99139C7.3487 24.7369 9.27535 23.0186 11.5997 23.0186C13.924 23.0186 15.8526 24.7369 16.208 26.9769H33.3004C33.6577 24.7369 35.5843 23.0186 37.9086 23.0186Z" fill="white"/>
<path d="M48.9731 25.0226L49.0581 25.3103L49.2731 25.2468V25.0226H48.9731ZM48.9727 25.0227L48.8877 24.735L48.912 25.3165L48.9727 25.0227ZM48.9727 28.436L48.912 28.1422L48.6727 28.1917V28.436H48.9727ZM48.9727 28.4611V28.7611H49.2727V28.4611H48.9727ZM42.5165 28.4611V28.1611H42.2605L42.2202 28.4139L42.5165 28.4611ZM33.3018 28.4611L33.5981 28.4141L33.558 28.1611H33.3018V28.4611ZM16.2074 28.4611V28.1611H15.9515L15.9112 28.4139L16.2074 28.4611ZM6.99087 28.4611L7.28716 28.4141L7.247 28.1611H6.99087V28.4611ZM3.23933 28.4611V28.1611L3.23854 28.1611L3.23933 28.4611ZM2.50361 28.463V28.763L2.5044 28.763L2.50361 28.463ZM3.23933 24.9976V25.2976H3.53933V24.9976H3.23933ZM9.38823 7.67986V7.97986L9.38843 7.97986L9.38823 7.67986ZM15.0626 7.67599L15.0628 7.97599L15.3626 7.97579V7.67599H15.0626ZM15.0626 5.70261H15.3626V5.43001L15.0912 5.40399L15.0626 5.70261ZM2.47121 2.5116L2.68399 2.30012L2.68309 2.29922L2.47121 2.5116ZM2.33866 1.64379L2.07291 1.50459L2.07253 1.50532L2.33866 1.64379ZM3.12242 1.25723L3.06875 1.55239L3.06926 1.55248L3.12242 1.25723ZM26.6518 2.2468L26.6508 1.9468L26.6505 1.9468L26.6518 2.2468ZM27.6808 2.24335L27.6819 2.54335L27.682 2.54335L27.6808 2.24335ZM27.681 2.24335L27.6799 1.94335L27.6798 1.94335L27.681 2.24335ZM27.6814 2.24335L27.6803 1.94335L27.6803 1.94335L27.6814 2.24335ZM27.6816 2.24335L27.6806 1.94335L27.6806 1.94335L27.6816 2.24335ZM27.6818 2.24335L27.6828 2.54334L27.6831 2.54334L27.6818 2.24335ZM27.6819 2.24334L27.6808 1.94335L27.6805 1.94335L27.6819 2.24334ZM30.2861 2.23714L30.2862 1.93714H30.2861V2.23714ZM36.6175 2.23907L36.6174 2.53907H36.6175V2.23907ZM46.9674 2.04193L46.9553 1.74215L46.9526 1.74229L46.9674 2.04193ZM47.7127 2.57922L48.0012 2.49705V2.49705L47.7127 2.57922ZM47.365 3.4316L47.5123 3.69293L47.5125 3.69282L47.365 3.4316ZM45.5286 4.20857L45.4348 3.92361L45.2286 3.99149V4.20857H45.5286ZM44.5816 7.25851L44.7172 7.5261L44.7174 7.52598L44.5816 7.25851ZM42.7817 7.10389L42.9614 6.8637L42.9611 6.86347L42.7817 7.10389ZM40.4017 5.32769L40.5811 5.08726L40.4813 5.0128L40.3582 5.03086L40.4017 5.32769ZM29.3028 6.15493L29.2958 5.85501L29.0028 5.86184V6.15493H29.3028ZM29.3028 7.68181H29.0028V7.98192L29.3029 7.98181L29.3028 7.68181ZM34.4642 7.67988V7.37988H34.4641L34.4642 7.67988ZM43.2219 10.6486L43.4073 10.4127L43.4041 10.4103L43.2219 10.6486ZM43.4236 10.8071L43.6098 10.5719L43.609 10.5712L43.4236 10.8071ZM48.0069 17.0479L47.7267 17.1551L47.7318 17.1685L47.7383 17.1814L48.0069 17.0479ZM48.0127 17.0595L48.2903 16.9459L48.2862 16.9358L48.2813 16.926L48.0127 17.0595ZM48.0261 17.0924L48.3093 16.9935L48.3067 16.986L48.3038 16.9787L48.0261 17.0924ZM48.0684 17.2049L47.7888 17.3137L47.791 17.3191L48.0684 17.2049ZM48.0684 17.205L48.3495 17.0997L48.3458 17.0908L48.0684 17.205ZM48.0685 17.2053L48.352 17.1067L48.3494 17.1L48.0685 17.2053ZM48.0686 17.2055L47.7851 17.3041L47.789 17.3143L48.0686 17.2055ZM48.1049 17.3011L47.8224 17.4025L47.8247 17.4084L48.1049 17.3011ZM48.3988 18.0684V18.3684H48.8349L48.6789 17.9611L48.3988 18.0684ZM48.3565 18.0684V17.7684H47.9535L48.0691 18.1545L48.3565 18.0684ZM46.2015 16.5859V16.8859H46.679L46.4718 16.4557L46.2015 16.5859ZM42.7073 12.1328L42.8981 11.9013L42.815 11.8328H42.7073V12.1328ZM44.0556 5.71032L43.7556 5.71031V5.71032H44.0556ZM43.6618 5.90939L43.8416 5.66925L43.8411 5.66885L43.6618 5.90939ZM42.4247 4.98745L42.3678 4.6929L41.7005 4.82185L42.2455 5.22799L42.4247 4.98745ZM44.0556 4.62988L44.3556 4.62989L44.3556 4.24649L43.9835 4.33869L44.0556 4.62988ZM25.7039 3.736L25.7048 4.036L25.705 4.036L25.7039 3.736ZM25.7041 3.736L25.7032 3.43601L25.7029 3.43601L25.7041 3.736ZM22.4262 3.74278L22.3986 3.44405L22.4262 4.04278V3.74278ZM22.4267 3.74274L22.4543 4.04146L22.4267 3.44274V3.74274ZM9.22602 3.42383L9.24549 3.12446L9.17004 3.71856L9.22602 3.42383ZM41.0976 3.70799L41.146 4.00406L41.0941 3.40801L41.0976 3.70799ZM36.6199 3.72925L36.6197 4.02925H36.6199V3.72925ZM30.2866 3.72345L30.2869 3.42345H30.2866V3.72345ZM26.658 3.73311L26.6589 4.03311L26.6594 4.03311L26.658 3.73311ZM16.5385 5.83594L16.5625 5.5369L16.2385 5.51088V5.83594H16.5385ZM27.8277 6.17997H28.1277V5.87594L27.8237 5.88L27.8277 6.17997ZM27.8277 7.67978V7.97978H28.1277V7.67978H27.8277ZM16.5385 7.67978H16.2385V7.97978H16.5385V7.67978ZM42.5169 26.9769L42.2206 27.0239L42.2608 27.2769H42.5169V26.9769ZM48.4813 26.9769V27.2769H48.7813V26.9769H48.4813ZM48.4813 26.4821H48.7813V26.1821H48.4813V26.4821ZM44.0555 26.4821H43.7555V26.7821H44.0555V26.4821ZM44.0555 24.9978V24.6978H43.7555V24.9978H44.0555ZM47.4978 24.9978V25.2978H47.7978V24.9978H47.4978ZM46.8063 18.0707L47.0906 17.9748L47.0218 17.7707H46.8063V18.0707ZM40.4769 10.6488V10.9488L40.6164 10.3832L40.4769 10.6488ZM4.71511 16.5863H4.41511V16.8863H4.71511V16.5863ZM12.1259 16.5863H12.4259V16.2863H12.1259V16.5863ZM12.1259 18.0707V18.3707H12.4259V18.0707H12.1259ZM4.71511 18.0707V17.7707H4.41511V18.0707H4.71511ZM4.71511 24.9978H4.41511V25.2978H4.71511V24.9978ZM5.69862 24.9978H5.99862V24.6978H5.69862V24.9978ZM5.69862 26.4821V26.7821H5.99862V26.4821H5.69862ZM2.74809 26.4821V26.1821H2.44809V26.4821H2.74809ZM2.74809 26.9769H2.44809V27.2769H2.74809V26.9769ZM6.99139 26.9769V27.2769H7.24733L7.28765 27.0242L6.99139 26.9769ZM16.208 26.9769L15.9117 27.0239L15.9518 27.2769H16.208V26.9769ZM33.3004 26.9769V27.2769H33.5563L33.5966 27.0242L33.3004 26.9769ZM49.2731 25.0226V22.2761H48.6731V25.0226H49.2731ZM49.0577 25.3104L49.0581 25.3103L48.8881 24.7349L48.8877 24.735L49.0577 25.3104ZM50.2562 26.2346C50.2562 25.4949 49.7316 24.8733 49.0334 24.7289L48.912 25.3165C49.3356 25.4041 49.6562 25.7836 49.6562 26.2346H50.2562ZM50.2562 27.2222V26.2346H49.6562V27.2222H50.2562ZM49.0334 28.7298C49.7316 28.5854 50.2562 27.9657 50.2562 27.2222H49.6562C49.6562 27.677 49.3356 28.0546 48.912 28.1422L49.0334 28.7298ZM49.2727 28.4611V28.436H48.6727V28.4611H49.2727ZM42.5165 28.7611H48.9727V28.1611H42.5165V28.7611ZM37.9082 32.7194C40.3846 32.7194 42.4329 30.8894 42.8127 28.5084L42.2202 28.4139C41.8854 30.513 40.0804 32.1194 37.9082 32.1194V32.7194ZM33.0055 28.5081C33.3833 30.8894 35.4318 32.7194 37.9082 32.7194V32.1194C35.7359 32.1194 33.9311 30.513 33.5981 28.4141L33.0055 28.5081ZM16.2074 28.7611H33.3018V28.1611H16.2074V28.7611ZM11.5992 32.7194C14.0756 32.7194 16.1239 30.8894 16.5037 28.5084L15.9112 28.4139C15.5764 30.513 13.7714 32.1194 11.5992 32.1194V32.7194ZM6.69458 28.5082C7.07238 30.8875 9.12281 32.7194 11.5992 32.7194V32.1194C9.42684 32.1194 7.62011 30.511 7.28716 28.4141L6.69458 28.5082ZM3.23933 28.7611H6.99087V28.1611H3.23933V28.7611ZM2.5044 28.763L3.24011 28.7611L3.23854 28.1611L2.50282 28.163L2.5044 28.763ZM0.972308 27.2241C0.972308 28.07 1.65589 28.763 2.50361 28.763V28.163C1.99134 28.163 1.57231 27.7428 1.57231 27.2241H0.972308ZM0.972308 26.2365V27.2241H1.57231V26.2365H0.972308ZM2.50361 24.6976C1.65841 24.6976 0.972308 25.388 0.972308 26.2365H1.57231C1.57231 25.7165 1.99265 25.2976 2.50361 25.2976V24.6976ZM3.23933 24.6976H2.50361V25.2976H3.23933V24.6976ZM2.93933 13.8667V24.9976H3.53933V13.8667H2.93933ZM9.38823 7.37986C5.8304 7.37986 2.93933 10.2914 2.93933 13.8667H3.53933C3.53933 10.6193 6.16525 7.97986 9.38823 7.97986V7.37986ZM15.0624 7.37599L9.38802 7.37986L9.38843 7.97986L15.0628 7.97599L15.0624 7.37599ZM14.7626 5.70261V7.67599H15.3626V5.70261H14.7626ZM2.25842 2.72308C2.68284 3.15012 3.32966 3.52512 4.12915 3.85794C4.93333 4.19271 5.91446 4.49388 7.02762 4.76259C9.2542 5.30008 12.0336 5.71349 15.0339 6.00124L15.0912 5.40399C12.1065 5.11773 9.35754 4.70779 7.16842 4.17934C6.07373 3.91509 5.12516 3.62265 4.35974 3.30402C3.58965 2.98344 3.02698 2.64523 2.68399 2.30013L2.25842 2.72308ZM2.07253 1.50532C1.86263 1.90876 1.93733 2.40275 2.25932 2.72399L2.68309 2.29922C2.5479 2.16436 2.51503 1.95479 2.6048 1.78225L2.07253 1.50532ZM3.17609 0.962073C2.72505 0.880054 2.2822 1.10504 2.07291 1.50459L2.60441 1.78299C2.6948 1.61043 2.88205 1.51844 3.06875 1.55239L3.17609 0.962073ZM22.4238 1.95646C15.6214 1.95646 8.03868 1.83767 3.17559 0.961982L3.06926 1.55248C7.99503 2.43946 15.6341 2.55646 22.4238 2.55646V1.95646ZM26.6505 1.9468C25.287 1.9526 23.8678 1.95646 22.4238 1.95646V2.55646C23.8688 2.55646 25.2889 2.5526 26.653 2.5468L26.6505 1.9468ZM27.6798 1.94335C27.3406 1.94454 26.9975 1.94574 26.6508 1.9468L26.6527 2.5468C26.9995 2.54574 27.3427 2.54454 27.6819 2.54335L27.6798 1.94335ZM27.6798 1.94335L27.6797 1.94335L27.682 2.54335L27.6821 2.54335L27.6798 1.94335ZM27.6798 1.94335L27.6798 1.94335L27.6821 2.54335L27.6822 2.54335L27.6798 1.94335ZM27.6803 1.94335L27.6799 1.94335L27.6821 2.54335L27.6824 2.54334L27.6803 1.94335ZM27.6806 1.94335L27.6803 1.94335L27.6824 2.54334L27.6826 2.54334L27.6806 1.94335ZM27.6808 1.94335L27.6806 1.94335L27.6826 2.54334L27.6828 2.54334L27.6808 1.94335ZM27.6805 1.94335L27.6804 1.94335L27.6831 2.54334L27.6832 2.54334L27.6805 1.94335ZM30.2861 1.93714C29.4504 1.93714 28.5793 1.94019 27.6808 1.94335L27.6829 2.54334C28.5816 2.54019 29.4516 2.53714 30.2861 2.53714V1.93714ZM36.6175 1.93907L30.2862 1.93714L30.286 2.53714L36.6174 2.53907L36.6175 1.93907ZM36.6194 1.93907H36.6175V2.53907H36.6194V1.93907ZM46.9526 1.74229C43.5369 1.91008 40.9034 1.93907 36.6194 1.93907V2.53907C40.9067 2.53907 43.5517 2.51007 46.9821 2.34156L46.9526 1.74229ZM48.0012 2.49705C47.8684 2.03071 47.4291 1.72317 46.9553 1.74217L46.9794 2.34168C47.1818 2.33357 47.3687 2.46672 47.4241 2.66139L48.0012 2.49705ZM47.5125 3.69282C47.932 3.45589 48.1329 2.95965 48.0012 2.49705L47.4241 2.66139C47.4807 2.85984 47.3934 3.071 47.2175 3.17038L47.5125 3.69282ZM45.6224 4.49353C46.3625 4.24989 46.9965 3.98372 47.5123 3.69293L47.2177 3.17027C46.7461 3.43612 46.1508 3.68791 45.4348 3.92361L45.6224 4.49353ZM45.8286 5.71036V4.20857H45.2286V5.71036H45.8286ZM44.7174 7.52598C45.4123 7.17301 45.8286 6.4914 45.8286 5.71036H45.2286C45.2286 6.26684 44.9379 6.74098 44.4457 6.99105L44.7174 7.52598ZM43.8017 7.74986C44.114 7.74986 44.4253 7.67405 44.7172 7.5261L44.4459 6.99093C44.2345 7.0981 44.0157 7.14986 43.8017 7.14986V7.74986ZM42.6019 7.34408C42.9602 7.6122 43.3784 7.74986 43.8017 7.74986V7.14986C43.5104 7.14986 43.2178 7.05558 42.9614 6.8637L42.6019 7.34408ZM40.2223 5.56811L42.6022 7.34432L42.9611 6.86347L40.5811 5.08726L40.2223 5.56811ZM29.3098 6.45485C33.6321 6.35416 37.3983 6.07137 40.4452 5.62451L40.3582 5.03086C37.3427 5.47311 33.6022 5.75469 29.2958 5.85501L29.3098 6.45485ZM29.6028 7.68181V6.15493H29.0028V7.68181H29.6028ZM34.4641 7.37988L29.3027 7.38181L29.3029 7.98181L34.4644 7.97988L34.4641 7.37988ZM43.4041 10.4103C40.9183 8.51073 37.8217 7.37988 34.4642 7.37988V7.97988C37.6845 7.97988 40.6541 9.064 43.0397 10.887L43.4041 10.4103ZM43.609 10.5712L43.4073 10.4127L43.0365 10.8845L43.2382 11.043L43.609 10.5712ZM48.2871 16.9407C47.3206 14.4139 45.6896 12.2187 43.6098 10.5719L43.2374 11.0423C45.2337 12.623 46.7992 14.7302 47.7267 17.1551L48.2871 16.9407ZM48.2813 16.926L48.2755 16.9144L47.7383 17.1814L47.744 17.193L48.2813 16.926ZM48.3038 16.9787L48.2903 16.9459L47.735 17.1731L47.7485 17.206L48.3038 16.9787ZM48.3479 17.096C48.3332 17.0583 48.3207 17.026 48.3093 16.9935L47.7429 17.1913C47.7583 17.2354 47.7747 17.2775 47.7888 17.3137L48.3479 17.096ZM48.3458 17.0908L48.3458 17.0906L47.791 17.3191L47.791 17.3193L48.3458 17.0908ZM48.3494 17.1L48.3493 17.0997L47.7875 17.3104L47.7876 17.3107L48.3494 17.1ZM48.3519 17.1069L48.3519 17.1068L47.7852 17.3039L47.7852 17.304L48.3519 17.1069ZM48.3872 17.1998C48.3741 17.1632 48.3603 17.1278 48.3481 17.0966L47.789 17.3143C47.8017 17.3468 47.8126 17.3748 47.8225 17.4025L48.3872 17.1998ZM48.6789 17.9611L48.385 17.1938L47.8247 17.4084L48.1186 18.1757L48.6789 17.9611ZM48.3565 18.3684H48.3988V17.7684H48.3565V18.3684ZM49.2731 22.2761C49.2731 20.7851 49.0516 19.3432 48.6439 17.9823L48.0691 18.1545C48.4605 19.4609 48.6731 20.8448 48.6731 22.2761H49.2731ZM46.2012 16.2859H35.45V16.8859H46.2012V16.2859ZM46.2015 16.2859H46.2012V16.8859H46.2015V16.2859ZM42.5165 12.3643C43.9601 13.5543 45.124 15.0409 45.9312 16.7162L46.4718 16.4557C45.6269 14.7023 44.4089 13.1466 42.8981 11.9013L42.5165 12.3643ZM35.45 12.4328H42.7073V11.8328H35.45V12.4328ZM35.5041 12.3802C35.5041 12.3995 35.4962 12.4119 35.4902 12.418C35.4842 12.424 35.471 12.4328 35.45 12.4328V11.8328C35.15 11.8328 34.9041 12.0829 34.9041 12.3802H35.5041ZM35.5041 16.3385V12.3802H34.9041V16.3385H35.5041ZM35.45 16.2859C35.471 16.2859 35.4842 16.2947 35.4902 16.3008C35.4962 16.3068 35.5041 16.3192 35.5041 16.3385H34.9041C34.9041 16.6358 35.15 16.8859 35.45 16.8859V16.2859ZM44.054 6.20058C44.1408 6.15694 44.2212 6.09181 44.278 5.99881C44.3346 5.90605 44.3556 5.80551 44.3556 5.71032H43.7556C43.7556 5.71756 43.7544 5.70496 43.7659 5.68613C43.7712 5.67756 43.777 5.67122 43.7816 5.66718C43.7859 5.66337 43.7876 5.66295 43.7844 5.66459L44.054 6.20058ZM43.482 6.14953C43.5575 6.20607 43.6504 6.2504 43.7597 6.26035C43.8693 6.27031 43.969 6.24337 44.054 6.20058L43.7844 5.66459C43.7803 5.66664 43.7815 5.66551 43.7873 5.66421C43.7937 5.66283 43.803 5.6618 43.8141 5.66281C43.8384 5.66503 43.8487 5.67457 43.8416 5.66925L43.482 6.14953ZM42.2455 5.22799L43.4825 6.14994L43.8411 5.66885L42.604 4.7469L42.2455 5.22799ZM43.9835 4.33869C43.4817 4.463 42.9431 4.58173 42.3678 4.6929L42.4817 5.282C43.0666 5.16897 43.6153 5.04803 44.1277 4.92108L43.9835 4.33869ZM44.3556 5.71032L44.3556 4.62989L43.7556 4.62988L43.7556 5.71031L44.3556 5.71032ZM25.705 4.036L25.7052 4.036L25.7029 3.43601L25.7027 3.43601L25.705 4.036ZM22.4262 4.04278C23.5393 4.04278 24.6364 4.03935 25.7048 4.036L25.7029 3.43601C24.6344 3.43935 23.5382 3.44278 22.4262 3.44278V4.04278ZM22.3991 3.44401L22.3986 3.44405L22.4538 4.0415L22.4543 4.04146L22.3991 3.44401ZM9.20656 3.7232C13.3488 3.99253 18.0595 4.04274 22.4267 4.04274V3.44274C18.0613 3.44274 13.367 3.39244 9.24549 3.12446L9.20656 3.7232ZM25.6152 4.41108C18.9156 4.41108 13.2277 3.87859 9.28201 3.1291L9.17004 3.71856C13.1613 4.4767 18.888 5.01108 25.6152 5.01108V4.41108ZM41.0493 3.41191C37.1541 4.04815 31.7754 4.41108 25.6152 4.41108V5.01108C31.7941 5.01108 37.2077 4.64735 41.146 4.00406L41.0493 3.41191ZM36.6219 4.02925C38.3206 4.02925 39.7644 4.02345 41.1011 4.00797L41.0941 3.40801C39.7607 3.42345 38.3193 3.42925 36.6219 3.42925V4.02925ZM36.6199 4.02925H36.6219V3.42925H36.6199V4.02925ZM30.2864 4.02345L36.6197 4.02925L36.6202 3.42925L30.2869 3.42345L30.2864 4.02345ZM26.6594 4.03311C27.9231 4.02731 29.1386 4.02345 30.2866 4.02345V3.42345C29.1373 3.42345 27.9208 3.42732 26.6567 3.43312L26.6594 4.03311ZM25.705 4.036L26.6589 4.03311L26.6571 3.43312L25.7032 3.43601L25.705 4.036ZM25.6148 5.89543C22.6297 5.89543 19.5144 5.77397 16.5625 5.5369L16.5145 6.13497C19.4828 6.37337 22.6142 6.49543 25.6148 6.49543V5.89543ZM27.8237 5.88C27.1006 5.88965 26.3643 5.89543 25.6148 5.89543V6.49543C26.3674 6.49543 27.1064 6.48962 27.8317 6.47994L27.8237 5.88ZM28.1277 7.67978V6.17997H27.5277V7.67978H28.1277ZM16.5385 7.97978H27.8277V7.37978H16.5385V7.97978ZM16.2385 5.83594V7.67978H16.8385V5.83594H16.2385ZM11.5998 30.6353C10.0038 30.6353 8.70339 29.3295 8.70339 27.7192H8.10339C8.10339 29.6574 9.66899 31.2353 11.5998 31.2353V30.6353ZM14.4962 27.7192C14.4962 29.3295 13.1958 30.6353 11.5998 30.6353V31.2353C13.5306 31.2353 15.0962 29.6574 15.0962 27.7192H14.4962ZM11.5998 24.8031C13.1958 24.8031 14.4962 26.1089 14.4962 27.7192H15.0962C15.0962 25.781 13.5306 24.2031 11.5998 24.2031V24.8031ZM8.70339 27.7192C8.70339 26.1089 10.0038 24.8031 11.5998 24.8031V24.2031C9.66899 24.2031 8.10339 25.781 8.10339 27.7192H8.70339ZM34.4123 27.7192C34.4123 29.6574 35.9779 31.2353 37.9087 31.2353V30.6353C36.3127 30.6353 35.0123 29.3295 35.0123 27.7192H34.4123ZM37.9087 24.2031C35.9779 24.2031 34.4123 25.781 34.4123 27.7192H35.0123C35.0123 26.1089 36.3127 24.8031 37.9087 24.8031V24.2031ZM41.4051 27.7192C41.4051 25.781 39.8395 24.2031 37.9087 24.2031V24.8031C39.5046 24.8031 40.8051 26.1089 40.8051 27.7192H41.4051ZM37.9087 31.2353C39.8395 31.2353 41.4051 29.6574 41.4051 27.7192H40.8051C40.8051 29.3295 39.5046 30.6353 37.9087 30.6353V31.2353ZM42.8132 26.9299C42.4354 24.5485 40.3849 22.7186 37.9086 22.7186V23.3186C40.0811 23.3186 41.8877 24.9252 42.2206 27.0239L42.8132 26.9299ZM48.4813 26.6769H42.5169V27.2769H48.4813V26.6769ZM48.1813 26.4821V26.9769H48.7813V26.4821H48.1813ZM44.0555 26.7821H48.4813V26.1821H44.0555V26.7821ZM43.7555 24.9978V26.4821H44.3555V24.9978H43.7555ZM47.4978 24.6978H44.0555V25.2978H47.4978V24.6978ZM47.1978 22.2783V24.9978H47.7978V22.2783H47.1978ZM46.522 18.1665C46.9576 19.4587 47.1978 20.8392 47.1978 22.2783H47.7978C47.7978 20.7719 47.5463 19.3267 47.0906 17.9748L46.522 18.1665ZM35.4497 18.3707H46.8063V17.7707H35.4497V18.3707ZM33.4286 16.3389C33.4286 17.4576 34.3334 18.3707 35.4497 18.3707V17.7707C34.6682 17.7707 34.0286 17.1298 34.0286 16.3389H33.4286ZM33.4286 12.3806V16.3389H34.0286V12.3806H33.4286ZM35.4497 10.3488C34.3334 10.3488 33.4286 11.2618 33.4286 12.3806H34.0286C34.0286 11.5897 34.6682 10.9488 35.4497 10.9488V10.3488ZM40.4769 10.3488H35.4497V10.9488H40.4769V10.3488ZM34.4642 9.46443C36.5807 9.46443 38.5788 9.99102 40.3375 10.9144L40.6164 10.3832C38.7748 9.41628 36.6814 8.86443 34.4642 8.86443V9.46443ZM9.3887 9.46443H34.4642V8.86443H9.3887V9.46443ZM5.01511 13.8669C5.01511 11.4389 6.97832 9.46443 9.3887 9.46443V8.86443C6.64332 8.86443 4.41511 11.1112 4.41511 13.8669H5.01511ZM5.01511 16.5863V13.8669H4.41511V16.5863H5.01511ZM12.1259 16.2863H4.71511V16.8863H12.1259V16.2863ZM12.4259 18.0707V16.5863H11.8259V18.0707H12.4259ZM4.71511 18.3707H12.1259V17.7707H4.71511V18.3707ZM5.01511 24.9978V18.0707H4.41511V24.9978H5.01511ZM5.69862 24.6978H4.71511V25.2978H5.69862V24.6978ZM5.99862 26.4821V24.9978H5.39862V26.4821H5.99862ZM2.74809 26.7821H5.69862V26.1821H2.74809V26.7821ZM3.04809 26.9769V26.4821H2.44809V26.9769H3.04809ZM6.99139 26.6769H2.74809V27.2769H6.99139V26.6769ZM11.5997 22.7186C9.12324 22.7186 7.07493 24.5487 6.69514 26.9297L7.28765 27.0242C7.62247 24.9251 9.42745 23.3186 11.5997 23.3186V22.7186ZM16.5042 26.9299C16.1265 24.5485 14.0759 22.7186 11.5997 22.7186V23.3186C13.7721 23.3186 15.5787 24.9252 15.9117 27.0239L16.5042 26.9299ZM33.3004 26.6769H16.208V27.2769H33.3004V26.6769ZM37.9086 22.7186C35.4322 22.7186 33.3839 24.5487 33.0041 26.9297L33.5966 27.0242C33.9314 24.9251 35.7364 23.3186 37.9086 23.3186V22.7186Z" fill="#222532"/>
<path fill-rule="evenodd" clip-rule="evenodd" d="M23.4019 12.3802V16.3385C23.4019 17.2933 22.6297 18.0703 21.6807 18.0703H16.7632C15.8143 18.0703 15.0421 17.2933 15.0421 16.3385V12.3802C15.0421 11.4254 15.8143 10.6484 16.7632 10.6484H21.6807C22.6297 10.6484 23.4019 11.4254 23.4019 12.3802ZM16.5173 12.3802V16.3385C16.5173 16.4738 16.6306 16.5859 16.7632 16.5859H21.6807C21.8133 16.5859 21.9266 16.4719 21.9266 16.3385V12.3802C21.9266 12.2468 21.8133 12.1328 21.6807 12.1328H16.7632C16.6306 12.1328 16.5173 12.2468 16.5173 12.3802Z" fill="white"/>
<path d="M23.7019 16.3385V12.3802H23.1019V16.3385H23.7019ZM21.6807 18.3703C22.7971 18.3703 23.7019 17.4573 23.7019 16.3385H23.1019C23.1019 17.1294 22.4623 17.7703 21.6807 17.7703V18.3703ZM16.7632 18.3703H21.6807V17.7703H16.7632V18.3703ZM14.7421 16.3385C14.7421 17.4573 15.6468 18.3703 16.7632 18.3703V17.7703C15.9817 17.7703 15.3421 17.1294 15.3421 16.3385H14.7421ZM14.7421 12.3802V16.3385H15.3421V12.3802H14.7421ZM16.7632 10.3484C15.6468 10.3484 14.7421 11.2615 14.7421 12.3802H15.3421C15.3421 11.5894 15.9817 10.9484 16.7632 10.9484V10.3484ZM21.6807 10.3484H16.7632V10.9484H21.6807V10.3484ZM23.7019 12.3802C23.7019 11.2615 22.7971 10.3484 21.6807 10.3484V10.9484C22.4623 10.9484 23.1019 11.5894 23.1019 12.3802H23.7019ZM16.8173 16.3385V12.3802H16.2173V16.3385H16.8173ZM16.7632 16.2859C16.7826 16.2859 16.7959 16.294 16.8028 16.3009C16.8099 16.308 16.8173 16.3209 16.8173 16.3385H16.2173C16.2173 16.6393 16.4647 16.8859 16.7632 16.8859V16.2859ZM21.6807 16.2859H16.7632V16.8859H21.6807V16.2859ZM21.6266 16.3385C21.6266 16.3192 21.6346 16.3068 21.6406 16.3008C21.6466 16.2947 21.6598 16.2859 21.6807 16.2859V16.8859C21.9807 16.8859 22.2266 16.6358 22.2266 16.3385H21.6266ZM21.6266 12.3802V16.3385H22.2266V12.3802H21.6266ZM21.6807 12.4328C21.6598 12.4328 21.6466 12.424 21.6406 12.418C21.6346 12.4119 21.6266 12.3995 21.6266 12.3802H22.2266C22.2266 12.0829 21.9807 11.8328 21.6807 11.8328V12.4328ZM16.7632 12.4328H21.6807V11.8328H16.7632V12.4328ZM16.8173 12.3802C16.8173 12.3995 16.8093 12.4119 16.8033 12.418C16.7973 12.424 16.7842 12.4328 16.7632 12.4328V11.8328C16.4632 11.8328 16.2173 12.0829 16.2173 12.3802H16.8173Z" fill="#222532"/>
<path fill-rule="evenodd" clip-rule="evenodd" d="M26.1065 10.6484H31.0241C31.973 10.6484 32.7452 11.4254 32.7452 12.3802V16.3385C32.7452 17.2933 31.973 18.0703 31.0241 18.0703H26.1065C25.1576 18.0703 24.3854 17.2933 24.3854 16.3385V12.3802C24.3854 11.4254 25.1576 10.6484 26.1065 10.6484ZM31.0241 16.5859C31.1566 16.5859 31.27 16.4719 31.27 16.3385V12.3802C31.27 12.2468 31.1566 12.1328 31.0241 12.1328H26.1066C25.974 12.1328 25.8607 12.2468 25.8607 12.3802V16.3385C25.8607 16.4719 25.974 16.5859 26.1066 16.5859H31.0241Z" fill="white"/>
<path d="M31.0241 10.3484H26.1065V10.9484H31.0241V10.3484ZM33.0452 12.3802C33.0452 11.2615 32.1405 10.3484 31.0241 10.3484V10.9484C31.8056 10.9484 32.4452 11.5894 32.4452 12.3802H33.0452ZM33.0452 16.3385V12.3802H32.4452V16.3385H33.0452ZM31.0241 18.3703C32.1405 18.3703 33.0452 17.4573 33.0452 16.3385H32.4452C32.4452 17.1294 31.8056 17.7703 31.0241 17.7703V18.3703ZM26.1065 18.3703H31.0241V17.7703H26.1065V18.3703ZM24.0854 16.3385C24.0854 17.4573 24.9902 18.3703 26.1065 18.3703V17.7703C25.325 17.7703 24.6854 17.1294 24.6854 16.3385H24.0854ZM24.0854 12.3802V16.3385H24.6854V12.3802H24.0854ZM26.1065 10.3484C24.9902 10.3484 24.0854 11.2615 24.0854 12.3802H24.6854C24.6854 11.5894 25.325 10.9484 26.1065 10.9484V10.3484ZM30.97 16.3385C30.97 16.3192 30.978 16.3068 30.984 16.3008C30.99 16.2947 31.0031 16.2859 31.0241 16.2859V16.8859C31.3241 16.8859 31.57 16.6358 31.57 16.3385H30.97ZM30.97 12.3802V16.3385H31.57V12.3802H30.97ZM31.0241 12.4328C31.0031 12.4328 30.99 12.424 30.984 12.418C30.978 12.4119 30.97 12.3995 30.97 12.3802H31.57C31.57 12.0829 31.3241 11.8328 31.0241 11.8328V12.4328ZM26.1066 12.4328H31.0241V11.8328H26.1066V12.4328ZM26.1607 12.3802C26.1607 12.3995 26.1527 12.4119 26.1467 12.418C26.1407 12.424 26.1275 12.4328 26.1066 12.4328V11.8328C25.8066 11.8328 25.5607 12.0829 25.5607 12.3802H26.1607ZM26.1607 16.3385V12.3802H25.5607V16.3385H26.1607ZM26.1066 16.2859C26.1275 16.2859 26.1407 16.2947 26.1467 16.3008C26.1527 16.3068 26.1607 16.3192 26.1607 16.3385H25.5607C25.5607 16.6358 25.8066 16.8859 26.1066 16.8859V16.2859ZM31.0241 16.2859H26.1066V16.8859H31.0241V16.2859Z" fill="#222532"/>
<path fill-rule="evenodd" clip-rule="evenodd" d="M35.9417 27.7188C35.9417 26.6268 36.8234 25.7396 37.9087 25.7396C38.994 25.7396 39.8757 26.6287 39.8757 27.7188C39.8757 28.8108 38.994 29.698 37.9087 29.698C36.8234 29.698 35.9417 28.8108 35.9417 27.7188ZM37.4169 27.7188C37.4169 27.9913 37.6378 28.2136 37.9087 28.2136C38.1795 28.2136 38.4004 27.9913 38.4004 27.7188C38.4004 27.4463 38.1795 27.224 37.9087 27.224C37.6378 27.224 37.4169 27.4463 37.4169 27.7188Z" fill="white"/>
<path d="M37.9087 25.4396C36.6559 25.4396 35.6417 26.4628 35.6417 27.7188H36.2417C36.2417 26.7907 36.9908 26.0396 37.9087 26.0396V25.4396ZM40.1757 27.7188C40.1757 26.465 39.1616 25.4396 37.9087 25.4396V26.0396C38.8264 26.0396 39.5757 26.7925 39.5757 27.7188H40.1757ZM37.9087 29.998C39.1614 29.998 40.1757 28.9747 40.1757 27.7188H39.5757C39.5757 28.6469 38.8265 29.398 37.9087 29.398V29.998ZM35.6417 27.7188C35.6417 28.9747 36.6559 29.998 37.9087 29.998V29.398C36.9908 29.398 36.2417 28.6469 36.2417 27.7188H35.6417ZM37.9087 27.9136C37.8052 27.9136 37.7169 27.8274 37.7169 27.7188H37.1169C37.1169 28.1553 37.4704 28.5136 37.9087 28.5136V27.9136ZM38.1004 27.7188C38.1004 27.8274 38.0121 27.9136 37.9087 27.9136V28.5136C38.3469 28.5136 38.7004 28.1553 38.7004 27.7188H38.1004ZM37.9087 27.524C38.0121 27.524 38.1004 27.6102 38.1004 27.7188H38.7004C38.7004 27.2823 38.3469 26.924 37.9087 26.924V27.524ZM37.7169 27.7188C37.7169 27.6102 37.8052 27.524 37.9087 27.524V26.924C37.4704 26.924 37.1169 27.2823 37.1169 27.7188H37.7169Z" fill="#222532"/>
<path fill-rule="evenodd" clip-rule="evenodd" d="M9.63278 27.7188C9.63278 26.6268 10.5145 25.7396 11.5998 25.7396C12.6851 25.7396 13.5668 26.6287 13.5668 27.7188C13.5668 28.8108 12.6851 29.698 11.5998 29.698C10.5145 29.698 9.63278 28.8089 9.63278 27.7188ZM11.108 27.7188C11.108 27.9913 11.3289 28.2136 11.5998 28.2136C11.8706 28.2136 12.0915 27.9913 12.0915 27.7188C12.0915 27.4463 11.8706 27.224 11.5998 27.224C11.3289 27.224 11.108 27.4463 11.108 27.7188Z" fill="white"/>
<path d="M11.5998 25.4396C10.3471 25.4396 9.33278 26.4628 9.33278 27.7188H9.93278C9.93278 26.7907 10.6819 26.0396 11.5998 26.0396V25.4396ZM13.8668 27.7188C13.8668 26.465 12.8527 25.4396 11.5998 25.4396V26.0396C12.5175 26.0396 13.2668 26.7925 13.2668 27.7188H13.8668ZM11.5998 29.998C12.8525 29.998 13.8668 28.9747 13.8668 27.7188H13.2668C13.2668 28.6469 12.5177 29.398 11.5998 29.398V29.998ZM9.33278 27.7188C9.33278 28.9726 10.3469 29.998 11.5998 29.998V29.398C10.6821 29.398 9.93278 28.6451 9.93278 27.7188H9.33278ZM11.5998 27.9136C11.4964 27.9136 11.408 27.8274 11.408 27.7188H10.808C10.808 28.1553 11.1615 28.5136 11.5998 28.5136V27.9136ZM11.7915 27.7188C11.7915 27.8274 11.7032 27.9136 11.5998 27.9136V28.5136C12.0381 28.5136 12.3915 28.1553 12.3915 27.7188H11.7915ZM11.5998 27.524C11.7032 27.524 11.7915 27.6102 11.7915 27.7188H12.3915C12.3915 27.2823 12.0381 26.924 11.5998 26.924V27.524ZM11.408 27.7188C11.408 27.6102 11.4964 27.524 11.5998 27.524V26.924C11.1615 26.924 10.808 27.2823 10.808 27.7188H11.408Z" fill="#222532"/>
<path d="M17.0091 24.9974H32.2535V26.4818H17.0091V24.9974Z" fill="white" stroke="#222532" stroke-width="0.6"/>
</svg>
