<svg class="cls" xmlns="http://www.w3.org/2000/svg" xmlns:xlink="http://www.w3.org/1999/xlink" preserveAspectRatio="xMidYMid" width="19.781" height="16.37" viewBox="0 0 19.781 16.37">

    <filter id="color-overlay-1" filterUnits="userSpaceOnUse">
      
      <feComposite operator="in" in2="SourceGraphic"/>
      <feBlend in2="SourceGraphic" result="solidFill"/>
    </filter>
  </defs>
  <path d="M17.780,2.780 L19.766,2.380 C19.766,2.380 18.102,4.275 17.780,4.378 C17.777,4.379 17.773,4.376 17.770,4.376 C17.727,5.300 17.780,5.578 17.780,5.578 C13.984,22.058 0.014,14.772 0.014,14.772 C5.096,14.907 5.550,12.773 5.550,12.773 C2.573,12.318 1.999,10.375 1.999,10.375 C3.011,10.841 3.577,9.975 3.577,9.975 C0.364,9.134 0.815,5.977 0.815,5.977 C1.352,6.474 2.229,6.663 2.752,6.735 C2.388,6.308 -0.610,2.666 1.210,0.780 C1.210,0.780 3.400,4.771 9.199,5.153 L9.587,5.055 C9.527,4.772 9.495,4.479 9.495,4.179 C9.495,1.860 11.349,-0.019 13.637,-0.019 C16.395,-0.019 16.991,1.580 16.991,1.580 L18.963,0.381 C18.963,0.381 18.747,2.385 17.780,2.780 Z" class="cls-1"/>
</svg>
