<svg xmlns="http://www.w3.org/2000/svg" xmlns:xlink="http://www.w3.org/1999/xlink" preserveAspectRatio="xMidYMid" width="25.72" height="25.72" viewBox="0 0 25.72 25.72">
  <defs>
    <style>
      .cls-1 {
        fill: #1a1a1a;
        fill-rule: evenodd;
      }
    </style>
  </defs>
  <path d="M0.972,24.757 C1.619,25.404 2.395,25.728 3.299,25.728 L22.418,25.728 C23.322,25.728 24.097,25.404 24.745,24.757 C25.392,24.109 25.716,23.334 25.716,22.430 L25.716,3.311 C25.716,2.407 25.392,1.632 24.745,0.984 C24.097,0.337 23.322,0.013 22.418,0.013 L3.299,0.013 C2.395,0.013 1.619,0.337 0.972,0.984 C0.325,1.632 0.001,2.407 0.001,3.311 L0.001,22.430 C0.001,23.334 0.325,24.109 0.972,24.757 ZM2.864,10.895 L5.224,10.895 C5.001,11.598 4.890,12.329 4.890,13.088 C4.890,15.231 5.671,17.059 7.233,18.571 C8.796,20.083 10.676,20.839 12.875,20.839 C14.326,20.839 15.665,20.493 16.893,19.801 C18.121,19.109 19.092,18.169 19.806,16.980 C20.520,15.792 20.877,14.494 20.877,13.088 C20.877,12.329 20.766,11.598 20.543,10.895 L22.803,10.895 L22.803,21.743 C22.803,22.034 22.702,22.276 22.501,22.471 C22.300,22.667 22.060,22.764 21.781,22.764 L3.885,22.764 C3.595,22.764 3.352,22.667 3.157,22.471 C2.962,22.276 2.864,22.034 2.864,21.743 L2.864,10.895 ZM12.875,7.815 C14.304,7.815 15.523,8.303 16.533,9.280 C17.543,10.256 18.048,11.437 18.048,12.820 C18.048,14.204 17.543,15.385 16.533,16.361 C15.523,17.338 14.304,17.826 12.875,17.826 C11.458,17.826 10.244,17.338 9.234,16.361 C8.224,15.385 7.719,14.204 7.719,12.820 C7.719,11.437 8.224,10.256 9.234,9.280 C10.244,8.303 11.458,7.815 12.875,7.815 L12.875,7.815 ZM17.579,4.031 C17.579,3.719 17.691,3.448 17.914,3.219 C18.137,2.991 18.411,2.876 18.735,2.876 L21.648,2.876 C21.971,2.876 22.244,2.991 22.468,3.219 C22.691,3.448 22.803,3.719 22.803,4.031 L22.803,6.794 C22.803,7.117 22.691,7.391 22.468,7.614 C22.244,7.837 21.971,7.949 21.648,7.949 L18.735,7.949 C18.411,7.949 18.137,7.837 17.914,7.614 C17.691,7.391 17.579,7.117 17.579,6.794 L17.579,4.031 Z" class="cls-1"/>
</svg>
