<svg xmlns="http://www.w3.org/2000/svg" xmlns:xlink="http://www.w3.org/1999/xlink" preserveAspectRatio="xMidYMid" width="26.38" height="21.43" viewBox="0 0 26.38 21.43">
  <defs>
    <style>
      .cls-1 {
        fill: #1a1a1a;
        fill-rule: evenodd;
      }
    </style>
  </defs>
  <path d="M8.291,21.425 C10.211,21.425 12.013,21.121 13.699,20.512 C15.384,19.904 16.824,19.089 18.018,18.068 C19.212,17.047 20.242,15.872 21.107,14.544 C21.972,13.216 22.616,11.830 23.040,10.384 C23.464,8.939 23.677,7.491 23.677,6.040 C23.677,5.727 23.671,5.493 23.660,5.337 C24.720,4.567 25.624,3.635 26.372,2.541 C25.334,2.987 24.296,3.266 23.258,3.378 C24.430,2.675 25.222,1.682 25.635,0.398 C24.564,1.034 23.420,1.469 22.203,1.704 C21.132,0.565 19.815,-0.004 18.252,-0.004 C16.757,-0.004 15.482,0.524 14.427,1.578 C13.372,2.633 12.845,3.908 12.845,5.404 C12.845,5.805 12.890,6.218 12.979,6.642 C10.769,6.531 8.696,5.976 6.760,4.977 C4.823,3.978 3.180,2.647 1.829,0.984 C1.338,1.821 1.093,2.731 1.093,3.713 C1.093,4.639 1.310,5.498 1.746,6.291 C2.181,7.083 2.767,7.725 3.504,8.216 C2.633,8.183 1.818,7.954 1.059,7.530 L1.059,7.597 C1.059,8.902 1.469,10.049 2.290,11.037 C3.110,12.025 4.145,12.647 5.395,12.903 C4.926,13.026 4.452,13.088 3.972,13.088 C3.660,13.088 3.319,13.060 2.951,13.004 C3.297,14.087 3.933,14.977 4.860,15.674 C5.786,16.372 6.835,16.732 8.007,16.754 C6.042,18.294 3.805,19.064 1.294,19.064 C0.814,19.064 0.378,19.042 -0.012,18.997 C2.499,20.616 5.267,21.425 8.291,21.425 L8.291,21.425 Z" class="cls-1"/>
</svg>
