<svg width="21" height="24" viewBox="0 0 21 24" fill="none" xmlns="http://www.w3.org/2000/svg">
<path d="M10.6902 23.8879C11.0818 23.8485 11.4526 23.688 11.7504 23.4276L19.7555 16.451C20.1591 16.1225 20.4137 15.641 20.4614 15.1187C20.509 14.5963 20.3467 14.077 20.0117 13.6773C19.6751 13.2791 19.1957 13.0354 18.6804 13.0036C18.1652 12.9718 17.659 13.1535 17.2778 13.5077L10.5115 19.4065L3.74524 13.5077C3.36404 13.1535 2.85778 12.9718 2.34255 13.0036C1.82732 13.0354 1.34785 13.2791 1.01133 13.6773C0.676293 14.077 0.513983 14.5963 0.561632 15.1187C0.609282 15.641 0.863911 16.1225 1.26746 16.451L9.27261 23.4276C9.66421 23.7698 10.1765 23.9348 10.6902 23.8879Z" fill="white"/>
<path d="M10.6902 10.8879C11.0818 10.8485 11.4526 10.688 11.7504 10.4276L19.7555 3.45102C20.1591 3.12248 20.4137 2.64104 20.4614 2.11868C20.509 1.59633 20.3467 1.07704 20.0117 0.677315C19.6751 0.279144 19.1957 0.0353896 18.6804 0.00356854C18.1652 -0.0282258 17.659 0.153457 17.2778 0.507745L10.5115 6.40646L3.74524 0.507745C3.36404 0.153465 2.85778 -0.0282138 2.34255 0.00356854C1.82732 0.0353629 1.34785 0.279121 1.01133 0.677315C0.676293 1.077 0.513983 1.59633 0.561632 2.11868C0.609282 2.64104 0.863911 3.12246 1.26746 3.45102L9.27261 10.4276C9.66421 10.7698 10.1765 10.9348 10.6902 10.8879Z" fill="white"/>
</svg>
