<svg width="202" height="236" viewBox="0 0 202 236" fill="none" xmlns="http://www.w3.org/2000/svg">
<path d="M168.851 0.939392C160.424 24.3208 180.161 32.5255 195.957 47.8074C200.638 52.3357 201.085 59.817 196.158 64.3424C185.563 74.0738 145.394 59.9168 147.942 72.7451C150.573 85.9943 184.535 104.531 186.066 105.799C199.507 116.932 203.885 145.174 196.482 160.658C191.214 171.676 156.29 167.962 145.304 164.293C73.362 140.266 105.78 143.131 24.9661 135.67C18.7797 135.099 12.2967 134.806 6.35532 136.65C0.235497 138.549 0.430179 146.339 2.48352 150.55C9.28804 164.506 39.7504 188.178 31.5528 206.523C29.0375 212.152 23.143 215.707 20.4889 221.27C18.4099 225.627 18.6404 230.772 17.7162 235.523" stroke="white" stroke-width="2"/>
</svg>
